<?xml version="1.0" encoding="UTF-8"?>
<svg version="1.1" viewBox="0 0 2048 2048" width="512" height="512" xmlns="http://www.w3.org/2000/svg">
<path transform="translate(1073,95)" d="m0 0h28l33 2 39 5 30 6 34 9 29 10 24 10 22 10 22 12 22 13 21 14 19 14 11 9 14 12 10 9 13 12 8 8 7 8 11 12 9 11 12 15 12 17 10 15 12 20 12 22 12 25 11 27 12 36 8 32 5 26 5 35 32 257 20 159 9 71 3 35v31l-3 32-5 27-7 27-9 26-12 27-12 22-10 16-7 10 64 16 26 8 18 8 19 10 12 8 12 9 14 12 14 14 9 11 12 17 12 21 9 20 7 22 5 23 2 19 1 42v43l-1 301-7 14-8 7-8 3-6 1h-1417l-11-4-9-8-5-9-2-13v-366l2-24 5-24 2-7v-6l-11-14-10-13-29-44-18-27-4-9-1-11 2-9 5-8 4-5 14-11 16-13 13-10 14-11 15-12 17-13 17-14 13-10 14-11 10-8 18-14 16-13 13-10 28-22 8-6 1-4-3-31v-40l5-46 32-256 29-231 6-35 7-30 9-29 8-23 13-30 8-16 11-21 11-18 14-21 11-15 10-13 2-3h2l2-4 13-15 11-12 17-17 8-7 15-13 15-12 19-14 23-15 15-9 28-15 26-12 35-13 26-8 33-8 37-6 31-3zm7 65-36 2-24 3-31 6-30 8-34 12-21 9-16 8-24 13-17 11-16 11-18 14-11 9-15 14-8 7-3 3v2l-4 2v2l-3 1-7 8-9 10-11 14-10 13-9 13-9 14-12 21-10 19-11 25-9 24-9 31-7 31-5 34-60 480-3 26-1 16v14l5-2 14-11 16-13 17-13 16-13 13-10 14-11 16-13 17-13 14-11 3-2-2-9-7-20-7-23-6-28-4-28-2-31v-234l2-28 4-23 7-25 10-25 8-16 8-14 8-12 9-12 12-14 7-8 3-2v-2l4-2 11-10 13-10 15-10 22-12 21-8 19-5 20-3h35l25 4 20 6 21 9 19 11 13 10 14 12 15 16 7 8 17 17 13 10 13 9 16 9 16 8 21 8 19 5 17 3 20 2 144 1 23 2 15 4 16 8 16 12 10 11 8 13 7 15 3 12 1 7v260l-2 23-4 25-6 27-6 20-10 27-8 18-10 20-15 25-13 19-13 16-5 6v2h-2l-7 8-11 12-7 7-8 7-14 12-16 12-2 5v75l9 3 196 49 4-1 13-17 8-11 9-15 12-23 10-25 7-23 4-18 3-18 2-26v-19l-3-34-34-273-29-231-5-29-6-25-8-27-10-27-9-20-8-16-10-19-15-24-13-18-13-16-11-13-5-6h-2l-2-4-18-18h-2v-2l-8-7-11-9-15-12-20-14-19-12-25-14-23-11-28-11-27-9-28-7-28-5-25-3-39-2zm-169 268-21 4-15 6-12 6-15 10-10 8-10 9-15 15-13 18-10 17-8 17-7 21-4 18-2 16-1 19v219l1 23 3 27 7 33 6 20 5-2 13-11 16-12 11-9 14-11 17-13 14-9 12-7 21-9 20-6 13-3 17-2h36l21 3 19 5 19 7 19 9 14 9 16 12 13 12 8 8 11 14 10 15 11 21 8 21 5 19 3 19 1 14v16l-2 23-7 31-12 44v2l11-2 19-5 23-8 25-11 26-14 22-15 15-12 11-9 23-23 7-8 14-18 12-18 10-17 11-22 10-26 7-23 6-26 3-23 1-13v-250l-5-12-7-7-8-4-11-2-152-1-23-2-27-5-30-9-27-11-23-12-17-11-16-12-11-9-15-14-8-8-7-8-12-13-10-9-16-10-15-7-17-5-12-2zm50 476-21 4-19 7-15 8-19 14-16 13-13 10-11 9-16 12-12 10-14 11-10 8-18 14-10 8-28 22-15 12-42 33-15 12-14 11-16 13-11 8-12 10-13 10-14 11-15 12-28 22-18 14-16 13-17 13-11 9-14 11-18 14-16 13-17 13-11 9-28 22-13 10-1 2 6 10 20 30 10 14 11 13 9 9 16 12 18 10 20 8 15 4 13 2 21 1 21-2 14-3 36-11 25-5 20-2h20l22 2 24 5 16 5 16 6 16 8 14 8 14 10 10 8 12 11 12 12 7 8 9 10 7 8 9 10 7 8 9 10 7 8 9 10 7 8 9 10 7 8 9 10 7 8 10 11 7 8 3 4h2l2 4h3l8-29 7-26-1-5-12-11-4-4h-2l-2-4-8-9-10-14-9-16-7-17-5-17-3-19-1-13v-136l2-21 4-18 6-17 8-16 7-12 8-11 9-10 4-4v-2l4-2 10-9 18-12 16-8 19-7 18-4 23-2 19 1 3-5 27-99 6-28 1-11v-12l-2-18-5-19-7-17-8-14-10-13-15-15-14-10-10-6-19-8-21-5-7-1zm285 277-13 6-31 11-30 8-24 5 1 3 11 8 17 17 10 13 10 16 9 21 6 20 3 19 1 65v10h3l8-13 8-16 6-17 4-16 2-16v-144zm-195 67-15 2-14 4-16 8-11 8-7 6v2h-2l-10 13-9 17-4 13-2 11-1 19v120l2 20 3 11 5 13 9 14 9 11 11 9 13 8 14 6 18 4h24l14-3 13-5 15-8 11-9 8-8 8-11 8-16 4-13 2-11v-149l-3-16-5-14-7-13-8-10-7-8-12-9-12-7-16-6-20-3zm262 42-1 12-1 28-3 22-6 25-8 22-8 16-9 16-11 16-9 11 1 5 10 13 14 19 16 21 24 32 16 21 14 19 16 21 24 32 16 21 14 19 10 13 24 32 16 21 14 19 13 17 4 4 1-92 2-10 4-8 4-5 10-6 12-2 11 2 8 4 8 9 4 11 1 165 188 1 3-1v-342l-3-21-4-15-6-16-8-16-10-15-9-11-6-7-8-7-17-13-18-10-14-6-19-6-320-80zm-895 214-1 10-1 35v306l189 1 2-1 1-161 2-9 4-8 4-5 10-6 4-1h16l9 4 8 7 5 10 1 4 1 165h456l-1-5-16-29-13-24-12-22-16-29-14-26-24-44-7-12-7-14-3-2-24 88-6 12-8 7-7 3-5 1h-11l-11-4-10-9-12-14-13-14-7-8-13-15-14-15-9-11-13-14-7-8-10-11-9-11-16-17-9-11-13-14-7-8-10-11-14-16-8-7-15-11-16-9-16-7-21-6-13-2-13-1h-11l-21 2-23 6-26 8-25 5-22 2h-13l-24-2-25-5-27-9-17-8zm794 6-4 10-6 16-8 16-7 11-10 13-2 4h-2l-6 7-8 7-17 12-16 9-20 8-19 5-7 2 8 15 12 22 14 26 13 23 11 21 13 23 11 21 13 23 11 21 13 23 4 7h269l-6-9-13-17-12-16-14-19-16-21-14-19-13-17-14-19-16-21-12-16-16-21-14-19-13-17-12-16-16-21-14-19-10-13-15-20-16-21z"/>
<path transform="translate(858,1087)" d="m0 0h13l12 5 8 8 5 10 1 4v11l-4 11-7 8-13 12-11 9-14 12-15 13-11 9-11 10-11 9-11 10-11 9-14 12-15 13-11 9-11 10-11 9-11 10-11 9-28 24-11 8-9 3h-13l-10-4-10-9-5-11-1-11 2-9 5-8 4-5 11-9 11-10 11-9 11-10 11-9 10-9 11-9 30-26 11-9 11-10 11-9 10-9 11-9 30-26 11-9 11-10 11-9 9-6z"/>
<path transform="translate(861,639)" d="m0 0 11 1 16 7 84 42 10 7 6 7 4 9 1 8-2 11-6 10-8 7-100 50-7 2h-13l-10-4-9-8-6-12-1-11 2-9 5-9h2l2-4 10-6 32-16h2v-2l-6-2-29-15-9-6-6-7-4-9-1-11 2-8 4-8 5-6 10-6z"/>
<path transform="translate(1310,639)" d="m0 0 13 2 8 4 7 7 5 9 1 3v16l-6 12-9 8-38 19-1 2 7 2 19 10 13 7 9 8 5 9 1 3v16l-6 12-9 8-11 4h-13l-15-6-19-10-72-36-10-9-4-8-2-8 1-12 5-10 5-6 10-6 72-36 15-8 13-5z"/>
<path transform="translate(382,1023)" d="m0 0 13 2 8 4 7 7 5 9 1 3v16l-6 12-9 8-130 65-9 3h-13l-10-4-9-8-6-12-1-11 2-9 5-9h2l2-4 10-6 19-10 21-10 56-28 19-10 13-6z"/>
<path transform="translate(222,895)" d="m0 0h129l12 2 10 6 7 8 4 9v16l-6 12-7 7-9 4-6 1h-138l-11-4-9-8-6-12-1-8 2-11 5-10h2l2-4 14-7z"/>
</svg>
