<?xml version="1.0" encoding="UTF-8"?>
<svg version="1.1" viewBox="0 0 2048 2048" width="512" height="512" xmlns="http://www.w3.org/2000/svg">
<path transform="translate(1229)" d="m0 0h62l4 2 25 6 21 7 23 11 18 11 16 12 10 9 8 7 13 14 13 17 10 16 12 23 9 25 5 21 3 24v27l-2 19-6 25-6 17-12 25-11 17-10 13-11 12-9 10h-2v2l-11 9-1 1-1 36h23l16 2 14 5 12 8 12 12 8 14 4 13 1 7v48l-2 16-5 16-8 16-10 16-4 5h-2l-2 4-13 13-15 11-14 8-15 6-12 4-9 27-11 26-8 17-13 23-11 18-16 23-11 14-9 11-12 14-4 5h-2l-2 4-12 12-2 1 2 5 13 13 7 8 22 22 15 11 9 6 19 9 18 6 18 4 33 4 43 4 28 5 23 6 22 8 16 7 21 12 19 13 14 12 12 11 13 13 9 11 10 12 13 18 17 26 9 15 15 26 16 30 7 12 8 16 18 34 15 28 13 25 12 22 15 29 12 22 13 25 10 19 12 25 9 25 5 21 2 16v22l-2 14-4 15-1 6 11 4 15 8 15 11 12 11 16 16 11 14 14 19 13 18 11 16 28 40 12 17 9 14 9 19 5 15v4h2v221h-2l-5 15-8 15-7 9-12 12-14 9-13 6-15 5h-1887l-24-8-11-6-10-8-7-6-9-11-9-16-5-15-2-12-1-28v-138l1-34 3-17 5-15 8-16 9-14 13-19 13-18 11-16 24-34 13-18 11-14 9-10 7-8 7-7 11-9 16-11 10-5-1-7-5-16-3-21v-13l3-24 5-19 5-15 9-21 14-28 9-16 8-16 9-16 8-16 11-20 8-16 9-16 8-16 17-32 11-20 8-16 15-28 7-12 6-11 8-15 12-20 22-33 9-12 11-14 10-11 7-8 12-12 6-5h2v-2l20-15 21-13 22-11 25-9 23-6 28-5 43-4 28-3 23-5 18-6 17-8 11-7 16-12 13-12 16-17 2-5v-2l-4-2-24-24-9-11-7-7-9-11-14-18-13-19-12-19-10-17-8-16-11-24-11-30-2-8-16-5-17-8-15-10-13-11-11-11-11-15-8-14-5-11-4-13-2-12v-56l3-12 4-9 6-10 10-11 10-7 13-6 9-2 27-1 8 1v-64l2-35 4-31 6-29 7-26 8-22 10-23 9-17 8-13 11-16 11-14 9-10 1-2h2v-2h2l1-3 8-7 7-7 14-11 11-8 15-10 18-10 21-10 19-7 20-5 28-4 17-1h22l32 2 83 9 26 2h29l19-2 20-4 19-7 29-14 25-9 24-6 12-2zm14 61-19 3-21 6-15 6-30 14-17 6-18 5-24 4-11 1h-51l-31-3-72-8-16-1h-39l-17 2-25 6-15 6-20 10-19 12-16 13-10 9-12 12-11 14-10 14-12 21-8 18-7 19-7 24-5 25-4 29 11-1 35-5 25-2h39l32 3 29 5 24 6 20 6 39 14 49 18 28 9 30 7 26 4 22 2h44l24-2 35-5 38-8 31-8 30-9 50-17 16-8 14-13 2-1v-2h2v-2h2l7-8 13-17 11-21 7-21 3-16 1-20-2-20-5-21-6-16-8-16-9-14-8-10-9-10-9-9-13-10-18-11-17-8-15-5-19-4-9-1zm-483 319-27 2-27 4-25 5-1 1v184l3 24 5 22 6 20 11 27 13 26 12 20 15 22 14 18 12 14 11 12 26 26 11 9 13 11 16 12 20 13 21 12 22 11 23 9 26 8 20 4 16 2h24l17-2 23-5 33-11 20-9 16-8 18-10 18-12 14-10 10-8 11-9 11-10 8-7 19-19 7-8 1-3h2l9-11 14-18 18-27 12-21 13-26 8-21 5-15 6-25 3-20 1-19v-152l-12 3-39 12-35 9-31 7-35 6-34 4-14 1h-55l-21-2-27-4-27-6-25-7-30-10-65-24-25-8-28-7-16-3-20-2-17-1zm-169 100-1 1-1 10v33l2 10 7 14 8 10 9 9 3 1v-88zm808 0-1 87 2 1 8-7 4-4v-2h2l8-13 4-10 1-4v-46l-3-2zm-184 400-17 12-15 10-26 15-26 13-23 9-27 9-30 7-20 3-14 1h-19l-21-2-26-5-22-6-29-10-25-11-19-10-27-16-14-9-4 2-2 4h-2l-7 8-2 4h-2l-7 8-7 7-8 7-15 12-14 9-5 3 1 4 19 19 17 13 18 12 22 12 20 9 27 10 28 8 29 6 35 5 24 2 21 1h29l35-2 33-4 33-6 31-8 30-10 24-10 24-12 18-11 18-13 12-11 8-7 5-5v-2l-14-9-13-10-10-9-8-7-13-13-7-8-13-13-4-5zm-537 99-23 4-25 3-36 3-23 3-25 6-22 8-23 12-17 12-15 13-13 13-18 22-10 14-10 15-13 21-14 25-16 29-11 20-8 16-15 28-14 27-12 22-16 31-8 16 21-3 31-3h41l37 3 36 5 28 5h5l-1-16-11-109v-20l4-14 7-14 9-11 8-7 14-8 10-4 10-2 71-1h337l18 1 8 4 7 6 5 9 1 4v13l-5 11-7 7-9 4-10 1-409 1-6 4-2 3v14l20 198 18 178 7 65 3 7 5 6 2 1h853l5-3 4-6 3-18 13-129 24-238 7-67v-7l-5-6-4-2-399-1-9-2-8-5-7-8-3-8v-13l4-10 7-8 10-5 17-1h292l103 1 16 4 15 8 10 8 9 10 6 10 5 14 1 4v25l-6 60-5 48-1 14 10-1 43-7 36-4 15-1h42l32 3 17 3 4-1-18-36-12-22-15-29-12-22-15-29-12-22-14-26-13-23-14-23-10-15-10-14-11-14-18-20-11-10-13-10-17-11-16-8-21-8-24-6-18-3-56-5-32-5-7-1-13 15v2h-2l-7 8-11 11-11 9-10 8-24 16-21 12-22 11-27 11-33 11-40 10-41 7-38 4-17 1h-59l-29-2-36-5-22-4-26-6-27-8-30-11-24-11-25-13-20-13-16-12-11-9-16-15-5-6h-2l-2-4-8-9-5-7zm-340 418-24 3-23 5-21 7-18 8-5 4-8 19-6 20-2 13v16l4 16 6 11 9 11 14 11 16 9 21 9 26 8 26 6 32 5 39 4 49 3h41l-1-16-15-147-1-8-6-2-42-8-35-5-25-2zm1310 0-30 3-38 6-31 6-4 2-1 2-5 49-8 79-4 41h34l43-2 35-3 37-5 34-7 27-8 20-8 17-9 11-8 10-9 8-11 5-11 2-10v-22l-5-21-6-17-6-12-12-6-21-8-23-6-16-3-21-2zm-1428 189-13 3-11 6-14 11-8 8-18 22-12 17-8 11-14 20-12 17-13 19-13 18-8 13-5 11-2 9v11l3 10 6 8 11 7 11 4 13 2h810l30 1 12 6 6 7 4 10v13l-6 12-8 7-7 3-6 1-758 1-86-1-22-4-13-4v96l4 11 7 8 9 5 9 2h1858l11-2 9-6 7-8 3-8 1-8v-90l-24 6-13 2-47 1h-811l-14-1-9-4-8-7-5-10-1-11 4-13 7-8 9-5 4-1 865-1 15-3 12-5 8-6 5-7 3-10v-11l-4-14-9-16-28-40-12-17-16-23-13-18-9-12-11-13-11-12-14-11-14-7-15-2h-12l-16 10-23 12-26 10-28 8-27 6-37 6-38 4-47 3-40 1-16 1-4 31-5 16-7 14-9 11-9 8-12 7-15 5-20 2h-842l-17-2-15-5-13-8-8-7-9-12-8-16-4-16-3-26-1-2-10-1-48-1-58-4-40-5-27-5-30-7-20-6-25-10-16-8-11-6-12-8z"/>
<path transform="translate(1007,1332)" d="m0 0h27l19 3 18 6 16 8 12 8 13 11 9 10 10 15 7 16 4 15 1 5v26l-4 17-6 15-9 15-11 13-11 10-10 7-19 10-18 6-14 3-9 1h-25l-18-3-21-7-19-10-13-10-14-14-7-10-9-16-5-15-3-16v-17l3-17 4-12 8-16 10-14 5-6 8-7 9-7 11-7 14-7 15-5 13-3zm1 62-15 4-14 8-7 6-7 10-4 10-1 4v13l4 11 6 9 4 5 13 9 13 5 8 2 16 1 14-2 14-5 10-6 10-9 8-14 2-14-2-11-7-14-9-9-14-8-11-4-5-1z"/>
<path transform="translate(866,535)" d="m0 0h8l10 3 8 6 6 8 3 10v41l-2 8-7 11-9 6-7 2h-12l-10-4-8-7-6-12-1-7v-35l3-12 6-9 8-6z"/>
<path transform="translate(1146,535)" d="m0 0h9l11 4 6 4 6 8 3 9 1 31-1 15-4 10-7 8-10 5-10 2-12-3-9-6-6-8-3-8v-46l4-11 5-6 9-6z"/>
<path transform="translate(2047,1752)" d="m0 0"/>
<path transform="translate(79,2047)" d="m0 0 2 1z"/>
</svg>
