<?xml version="1.0" encoding="UTF-8"?>
<svg version="1.1" viewBox="0 0 2048 2048" width="512" height="512" xmlns="http://www.w3.org/2000/svg">
<path transform="translate(279,127)" d="m0 0 1344 1 17 3 15 6 12 7 9 7 6 5 9 11 7 11 6 13 4 14 1 7 1 33v733l1 4 12 7 12 8 19 14 13 11 14 12 19 19 5-2 43-29 16-10 17-11 10-5 4-1h12l9 3 10 8 6 10 2 8-1 12-5 10-5 6-10 7-19 12-17 11-18 12-17 11 1 4 12 21 9 17 11 25 12 36 7 28 5 31 2 23v49l-2 23-5 30-7 29-9 27-9 22-11 23-10 18-9 14-13 19-9 11-11 13-3 4h-2l-2 4-22 22-8 7-13 11-11 8-19 13-15 9-1 143-2 25-5 17-7 14-9 12-9 10-12 9-16 8-15 5-10 2h-25l-17-4-12-5-23-12-21-12-27-15-52-29-21-12-9-4-10-2-12 3-11 6-21 14-46 30-69 45-20 13-16 9-15 5-16 3h-19l-16-3-16-6-17-10-15-10-14-9-58-38-20-13-46-30-12-6-12-1-10 3-16 10-12 8-17 11-27 18-16 10-12 8-37 24-15 10-18 11-14 7-19 5-8 1h-17l-17-3-16-6-20-12-12-8-17-11-29-19-20-13-29-19-20-13-23-15-10-6-7-2h-13l-10 4-23 13-118 66-20 8-14 3h-26l-17-4-16-7-12-8-10-9-10-11-10-17-6-18-2-13v-1591l4-18 6-15 9-14 12-13 12-10 15-8 15-5 13-2zm-17 66-9 3-9 8-4 6-2 5-1 6v1577l2 9 6 9 7 6 10 4h13l12-5 22-12 21-12 22-12 23-13 27-15 21-12 17-8 15-4 6-1h24l15 3 13 5 15 8 15 10 22 14 48 32 16 10 15 10 22 14 15 10 13 8 8 3h12l12-5 25-16 39-26 16-10 26-17 20-13 35-23 17-9 12-4 9-2 19-1 17 2 16 5 19 10 12 8 17 11 124 81 12 7 6 2h12l12-5 14-9 32-21 43-28 17-11 26-17 20-13 17-11 15-7 15-4 6-1h24l15 3 13 5 27 14 21 12 27 15 25 14 23 13 18 10 14 7 3 1h13l10-4 7-5v-2h2l5-10 1-4 1-123-7 1-34 9-32 6-27 3-21 1h-15l-22-1-33-4-24-5-30-8-22-8-26-11-25-13-18-11-16-11-12-9-11-9-11-10-8-7-17-17-7-8-11-13-14-19-10-15-14-24-15-31-10-27-8-26-6-28-4-27-2-25v-35l3-32 5-29 5-21 8-26 9-24 16-33 13-22 10-15 14-19 13-15 9-10 5-6 8-7 9-9 2-1v-2l4-2 13-11 19-14 22-14 18-10 22-11 33-13 27-8 28-6 28-4 32-2h17l31 2 29 4 28 6 24 7 7 2v-733l-4-11-6-7-8-5-8-2h-100l-1 85-1 146-6 12-7 7-11 4h-15l-8-3-10-8-69-69-4 1-7 8-60 60-12 9-6 2h-16l-10-4-5-4-7-11-2-9-1-226zm1064 0-1 28v116l4-2 21-21v-2l4-2v-2l4-2v-2l4-2v-2l4-2 8-6 8-3h14l9 4 8 6 38 38h1v-144zm184 801-30 2-26 4-25 6-27 9-27 12-19 10-24 16-16 12-11 10-8 7-20 20-11 14-10 13-10 15-11 19-8 16-7 16-8 22-8 30-4 22-2 20-1 18v17l3 34 5 28 7 25 7 20 12 27 11 20 11 17 14 19 13 15 7 7 3 4h2l1 3 8 7 11 10 17 13 13 9 15 9 22 12 21 9 20 7 21 6 32 6 19 2 27 1 23-1 31-4 27-6 22-7 21-8 27-13 20-12 20-14 11-9 14-12 19-19v-2h2l9-11 13-17 10-15 10-17 11-22 8-20 8-25 6-25 4-27 1-12v-43l-3-28-6-29-7-24-7-19-11-24-9-17-4-7-3-1-15 12-13 10-13 11-11 9-16 15-13 12-17 17-7 8-8 8-9 11-11 13-12 16-13 18-10 15-17 28-13 24-9 19-7 14-12 28-11 29-7 19-6 10-8 6-9 3h-14l-10-4-12-9-17-13-18-14-16-12-18-14-26-20-14-11-12-9-18-14-16-12-36-28-13-10-8-6-7-10-3-8v-10l4-12 8-9 10-5 4-1h12l12 5 17 13 18 14 13 10 21 16 18 14 16 12 36 28 12 9 30 23 5 3 5-10 9-22 16-34 14-27 13-22 13-21 11-16 13-18 11-14 8-10 12-14 18-20 35-35 8-7 13-11 10-8v-2l4-2 11-9 14-11 11-8-1-4-14-14-11-9-15-12-18-12-21-12-25-12-21-8-19-6-27-6-20-3-32-2z"/>
<path transform="translate(449,802)" d="m0 0h925l116 1 9 3 9 6 7 10 2 6 1 8-2 10-5 9-4 5-8 5-6 2-10 1h-1088l-10-2-9-5-7-8-4-8-1-4v-11l4-11 6-8 10-6 6-2z"/>
<path transform="translate(459,674)" d="m0 0h914l118 1 10 4 8 6 6 9 2 6v15l-6 12-8 8-10 4-12 1h-1086l-10-2-10-6-6-7-4-8-1-4v-11l4-11 6-8 10-6 6-2z"/>
<path transform="translate(389,547)" d="m0 0h1102l9 3 9 7 6 9 2 6v15l-6 12-8 8-10 4-11 1h-1087l-10-2-9-5-7-8-4-8-1-4v-11l4-11 6-8 10-6z"/>
<path transform="translate(390,1251)" d="m0 0h618l9 2 9 6 7 8 4 10v13l-4 10-6 8-10 6-11 2h-612l-10-2-9-6-7-8-4-10v-12l4-11 7-8 9-6z"/>
<path transform="translate(391,1443)" d="m0 0h617l9 2 9 6 7 8 4 10v13l-4 10-6 8-10 6-11 2h-613l-9-2-9-6-7-8-4-10v-12l4-11 9-10 10-5z"/>
</svg>
