<?xml version="1.0" encoding="UTF-8"?>
<svg version="1.1" viewBox="0 0 2048 2048" width="512" height="512" xmlns="http://www.w3.org/2000/svg">
<path transform="translate(1404,687)" d="m0 0 10 2 6 4 7 8 14 22 11 17 48 76 13 21 14 23 11 18 24 40 17 29 16 27 12 21 13 23 16 28 13 24 10 18 28 52 9 17 8 16 21 41 8 17 8 16 17 36 16 36 14 33 16 41 10 28 11 33 10 36 7 34 4 31v48l-4 36-4 23-6 26-9 29-9 24-12 27-12 22-8 14-7 11-8 12-16 21-11 13-18 20-16 16-8 7-14 12-18 14-24 16-20 12-18 10-33 15-28 10-24 7-26 6-30 5-30 3h-58l-36-4-31-6-27-7-30-10-24-10-29-14-26-15-15-10-18-13-16-13-15-13-31-31-9-11-11-13-13-18-12-18-12-20-15-29-11-26-8-22-7-23-8-37-4-27-2-22-1-29 2-28 5-32 9-38 10-33 11-33 16-42 16-38 13-30 14-30 12-25 22-45 12-24 10-19 17-33 13-23 18-34 13-23 12-21 15-27 16-27 14-24 16-27 19-32 17-28 26-42 48-76 15-23 11-17 7-8 6-3zm1 62-13 21-15 23-9 15-12 19-48 78-13 22-15 25-13 22-28 48-6 11-26 46-13 24-10 18-8 14-8 16-15 28-15 29-26 52-13 28-8 18-7 14-17 39-18 45-9 24-14 43-10 38-5 26-3 25v35l4 38 6 31 6 23 9 27 12 28 12 24 14 23 11 16 12 16 12 14 9 10 7 8h2v2l8 7 9 9 11 9 12 10 20 14 19 12 18 10 24 12 23 9 30 10 30 7 25 4 32 3h41l33-3 29-5 24-6 19-6 17-6 26-11 22-11 22-13 19-13 17-13 11-9 13-12 3-2v-2l4-2 8-8v-2l3-1 7-8 11-13v-2h2l9-12 12-17 13-21 11-20 11-24 7-17 10-32 6-24 4-22 3-27 1-14v-31l-2-21-5-28-8-32-10-33-16-45-12-30-21-49-16-34-12-26-43-86-10-19-18-34-13-23-15-28-14-24-12-22-14-24-15-26-32-54-12-20-14-23-15-24-17-28-12-19-15-24-14-22-10-15z"/>
<path transform="translate(1445,33)" d="m0 0h26l21 3 16 5 17 8 14 10 5 4v2h2v2h2l8 10 8 13 7 15 5 19 3 24v16l-3 27-6 27-8 26-10 26-8 16-13 25-16 26-8 12-8 11-12 16-11 14-12 14-3 4h-2l-2 4-5 6h-2l-2 4-22 22-8 7-11 10-11 9-16 13-19 14-21 14-18 11-18 10-15 8-25 11-33 11-21 5-21 3h-29l-21-4-19-7-14-8-10-8-8-7-9-11-7-10-8-16-5-15-3-17-1-10v-17l2-20 5-25 6-21 9-24 9-21 14-28 14-24 12-19 12-17 14-19 10-12 8-10 9-10 14-15 27-27 8-7 10-9 14-11 18-14 16-11 23-15 26-14 25-12 27-10 26-7 23-4zm7 42-17 2-21 5-21 7-27 12-23 12-20 12-12 8-20 14-14 11-10 8-13 11-12 11-3 2v2l-4 2-16 16v2h-2l-7 8-12 14-13 17-10 13-16 24-10 16-9 15-14 28-10 22-8 22-6 23-3 17v32l4 16 5 12 8 11 4 5 12 9 11 5 14 4 10 1h21l21-3 22-6 25-9 29-14 18-10 19-12 17-12 16-12 17-14 11-10 8-7 9-9 2-1v-2h2v-2h2v-2h2v-2h2v-2h2l7-8 15-16 9-11 13-16 10-14 12-18 9-14 14-25 13-27 8-21 7-22 5-25 1-8v-31l-3-15-5-14-7-11-4-5-10-8-16-8-15-4-9-1z"/>
<path transform="translate(182,237)" d="m0 0 17 1 15 3 15 6 15 8 16 12 12 11 12 13 13 18 12 20 11 21 11 27 11 33 9 38 6 36 3 28 2 33v42l-3 45-5 35-7 35-8 29-9 26-11 26-12 23-8 13-13 18-2 3h-2l-2 4-15 16-14 11-14 9-18 8-16 4-17 2-15-1-21-5-14-6-13-8-12-9-10-9-10-10-13-17-9-13-11-19-11-22-11-28-9-28-7-29-5-26-4-29-3-38v-62l3-39 5-35 7-33 6-23 11-32 10-23 11-22 13-21 10-13 7-8 9-10 8-8 13-10 15-9 14-6 14-4zm-6 44-15 4-12 6-13 10-16 16-8 11-9 14-9 16-8 17-10 26-9 31-7 30-4 24-4 37-1 20v46l2 29 4 33 5 28 8 32 11 33 10 23 11 21 7 11 9 12 9 10 3 4h2v2l16 12 16 8 13 3h15l10-2 13-5 11-7 11-9 11-11 10-13 12-19 9-17 11-27 9-27 8-32 6-33 4-36 1-13 1-35-1-31-3-34-4-28-7-34-7-25-7-21-10-24-8-16-8-14-9-13-8-10-5-6-8-7-12-9-16-8-13-3z"/>
<path transform="translate(537,732)" d="m0 0 18 1 15 4 16 8 9 7 10 9 11 15 8 15 9 27 4 22 2 19v32l-4 36-5 26-6 24-12 37-10 24-12 25-10 19-13 21-8 12-13 18-13 16-11 12-7 8-8 8-8 7-15 12-15 10-16 9-19 7-17 4-13 1-18-2-16-5-16-8-9-7-7-6-9-11-7-11-8-17-5-16-4-21-2-21v-29l3-31 5-30 8-33 12-36 10-25 14-29 11-20 15-24 8-11 12-16 12-14 4-5 16-16 8-7 15-12 15-10 18-10 18-7 18-4zm-2 43-13 2-13 5-15 8-16 12-13 12-18 18-9 11-10 13-13 18-12 19-16 29-11 25-7 19-9 29-8 35-4 27-1 11v44l3 18 5 16 7 14 8 10 10 7 13 5 5 1h13l16-4 16-8 14-9 11-9 10-9 14-14 18-22 13-18 13-20 12-20 8-16 10-22 13-36 8-29 5-27 3-26v-38l-3-21-5-19-5-12-7-11-6-7-11-7-9-3z"/>
<path transform="translate(1040,706)" d="m0 0h21l16 3 14 5 15 9 13 11 10 12 7 12 6 16 4 17 1 8v33l-4 27-6 25-7 22-7 19-7 17-8 16-12 23-8 13-9 14-9 13-16 21-9 10-7 8-9 10-18 18-8 7-10 9-13 10-18 13-21 13-15 8-20 8-23 7-13 2h-26l-18-4-17-8-11-8-8-7-8-10-8-14-6-15-5-23-1-9v-26l3-25 6-28 7-23 11-28 16-33 16-27 10-15 10-14 9-12 11-13 9-11 19-19 1-2h2v-2l8-7 7-7 14-11 11-9 18-13 20-12 16-8 16-7 19-6zm-2 44-17 4-21 9-16 9-12 8-14 10-13 11-11 9-11 11-2 1v2l-4 2-4 4v2h-2v2h-2l-7 8-2 4h-2l-9 11-13 16-11 16-12 19-9 16-8 15-9 20-9 24-7 25-4 21-1 10v29l3 16 5 13 6 9 7 7 12 6 11 2h17l21-5 16-6 16-8 14-8 19-13 13-11 11-9 9-9 2-1v-2h2v-2l4-2v-2h2l7-8 9-10 9-11 10-13 13-18 14-24 12-23 9-19 10-26 7-22 5-21 3-20v-25l-3-15-5-13-8-11-10-8-12-5-4-1z"/>
<path transform="translate(597,124)" d="m0 0h25l17 3 24 8 17 8 18 11 14 10 14 11 14 13 8 7 6 7 5 5 12 13 11 14 10 13 16 24 12 20 8 14 11 23 12 29 11 33 7 28 4 21 3 27v28l-2 18-4 18-6 16-6 11-8 11-12 12-10 7-16 8-14 4-16 2-19-1-18-4-16-6-16-8-14-8-16-11-16-13-24-22-16-17-12-14-12-15-10-14-14-21-9-15-10-18-13-28-11-27-9-28-6-25-4-23-2-18v-34l3-22 5-19 7-16 6-11 9-12h2l2-4 14-11 17-8zm15 42-15 2-12 6-10 9-8 14-5 15-3 16-1 20 1 20 3 21 5 23 7 24 9 24 9 20 8 17 13 23 14 21 14 19 11 13 12 14 28 28 11 9 13 10 15 9 16 8 16 5 4 1h21l12-4 11-7 7-7 8-14 5-18 1-7 1-24-2-22-3-18-6-26-8-26-9-24-9-21-9-19-13-22-13-19-9-12-13-16-12-14-25-25-8-7-17-13-17-11-21-10-15-4z"/>
<path transform="translate(1763,490)" d="m0 0h27l16 3 22 8 23 12 12 8 11 8 16 13 12 11 10 9 2 4h2l7 8 12 13 11 14 14 18 19 29 9 16 12 23 11 24 9 23 8 26 6 24 5 30 1 12v33l-3 22-4 16-6 16-9 16-8 10-9 9-13 8-10 5-17 5-5 1h-28l-21-5-24-10-18-10-17-12-14-11-10-9-8-7-20-20-7-8-11-13-13-17-11-15-11-17-12-21-12-23-11-24-9-24-8-25-6-25-4-25-2-23v-16l2-23 5-23 8-20 8-13 8-10 5-5 8-7 11-7 15-6zm7 43-12 3-9 5-9 8-8 13-5 15-3 14-1 9v29l3 24 6 28 9 29 13 32 15 30 13 22 12 17 12 16 9 11 13 15 7 7 3 4h2l2 4 15 14 11 9 13 10 16 10 18 8 13 4 6 1h16l14-4 9-6 5-4 7-10 5-11 4-15 2-11v-40l-4-27-6-25-12-36-10-23-14-28-10-17-10-15-14-19-13-16-10-11-7-8-19-19-11-9-12-10-17-11-17-9-15-5-10-2z"/>
<path transform="translate(580,1385)" d="m0 0h17l19 3 21 7 16 8 11 6 15 10 13 10 10 8 24 22 2 4h2l7 8 11 12 11 14 13 17 11 16 13 21 8 14 8 16 12 26 10 27 8 26 6 26 3 19 2 25v16l-2 24-5 22-6 16-8 15-8 10-2 3h-2l-2 4-14 10-14 7-14 4-9 2h-23l-16-3-18-6-23-11-16-10-14-10-13-11-14-12-20-20-7-8-12-14-13-17-13-18-12-19-12-21-14-28-12-29-10-30-7-28-5-32-1-12v-29l3-23 5-19 5-13 9-16 11-13 10-9 11-7 15-6 12-3zm0 44-10 3-10 6-5 4-7 10-7 15-5 25v37l5 32 6 24 9 27 11 26 9 19 11 20 14 22 21 28 13 15 9 10 6 7h2v2l8 7 9 9 11 9 13 10 18 11 17 8 15 4 7 1h10l13-3 10-5 10-9 6-10 5-12 4-18 1-9v-33l-4-29-7-28-9-27-10-24-12-25-11-20-12-19-14-19-13-16-11-13-16-17-16-15-14-11-16-11-16-9-15-6-12-3z"/>
<path transform="translate(1403,1321)" d="m0 0 9 1 9 5 5 8 1 3v115l32-1h65l19 1 8 5 5 6 2 4v12l-6 10-6 4-3 1-12 1-103 1-1 113-5 10-7 5-6 2-10-1-6-3-7-8-2-6v-113h-110l-9-2-8-7-4-7v-11l5-10 5-4 5-2 10-1h105l1-114 4-8 8-7z"/>
<path transform="translate(1714,1552)" d="m0 0h9l8 3 7 7 3 10v11l-2 29-5 31-8 31-8 22-7 17-11 22-9 15-12 18-15 20h-2l-2 4-11 12-7 8-8 7-12 11-10 8-15 11-17 11-14 8-21 11-30 12-24 7-28 6-20 3-27 2h-13l-9-3-7-7-3-7v-9l3-8 5-5 7-4 6-1 22-1 31-4 26-6 30-10 26-12 21-12 16-11 13-10 10-9h2v-2l8-7 11-11 9-11 7-8 12-17 14-24 11-23 10-28 7-28 4-27 2-33 3-9 5-5 6-4z"/>
<path transform="translate(181,340)" d="m0 0h7l10 4 6 7 10 17 10 21 10 27 7 25 6 26 5 32 3 30 1 19v20l-2 7-8 9-8 3h-9l-8-4-7-8-2-8-2-40-3-29-5-29-6-25-8-25-8-20-12-23-4-8-1-3v-7l4-9 8-7z"/>
<path transform="translate(1453,132)" d="m0 0h10l8 4 7 8 2 6-1 13-6 22-7 20-9 20-8 16-8 14-6 11-19 28-12 16-14 17-12 14-12 12-6 3-8 1-10-3-6-5-4-8v-12l3-6 9-10 9-11 8-9 1-2h2l2-4 16-21 13-20 9-15 12-23 10-23 8-25 4-16 4-6 8-5z"/>
<path transform="translate(531,811)" d="m0 0 10 1 7 4 6 8 2 6 2 17v32l-3 28-7 34-9 30-9 24-6 12-4 5-6 3-11 1-8-3-6-5-4-8v-11l11-30 8-26 6-28 3-22 1-21-2-26 1-11 6-8 5-4z"/>
<path transform="translate(1042,785)" d="m0 0h11l6 3 7 8 2 4v21l-4 22-6 22-8 22-9 21-10 20-15 25-11 16-6 7-10 4h-7l-8-3-5-5-4-6-1-3v-9l4-9 10-15 12-20 12-23 11-27 7-24 3-15 2-18 4-9 5-5z"/>
<path transform="translate(590,1464)" d="m0 0 10 1 16 8 14 10 10 8 14 12 22 22 9 11 12 15 11 16 11 17 7 12 2 6v7l-5 10-5 5-8 3h-8l-9-4-7-8-11-18-8-12-12-16-9-11-12-13-14-14-11-9-16-11-13-8-6-7-2-5v-10l4-8 8-7z"/>
<path transform="translate(1774,569)" d="m0 0h12l9 4 15 9 12 9 11 9 12 11 17 17 9 11 10 12 10 14 10 15 11 18 3 7v9l-5 10-4 4-8 3h-10l-8-4-7-8-12-20-10-14-9-12-11-13-7-8-16-16-11-9-14-10-15-9-6-7-3-7v-7l3-8 4-5z"/>
<path transform="translate(611,202)" d="m0 0h9l10 4 12 7 14 10 13 11 8 7 22 22 9 11 12 15 13 19 12 19 5 10 1 7-3 9-7 8-7 3h-11l-8-4-7-9-15-24-14-19-11-13-11-12-14-14-11-9-11-8-19-12-5-6-2-5v-11l4-8 7-6z"/>
</svg>
