<?xml version="1.0" encoding="UTF-8"?>
<svg version="1.1" viewBox="0 0 2048 2048" width="512" height="512" xmlns="http://www.w3.org/2000/svg">
<path transform="translate(831,16)" d="m0 0h26l24 3 20 5 17 6 23 11 16 10 16 13 10 9 12 13 11 15 11 19 8 19 6 20 4 23v33l-4 23-4 15-9 22-10 18-13 18-15 16-10 9 1 9 10 49 4 11 14 23 15 23 4 7 2 1 35 2 36 4 34 6 30 7 25 7 29 10 30 12 15 7 22 11 20 11 5-1 24-11 15-7 15-8 8-8 1-2h2l2-4 8-8 14-16h2l2-4 9-9 7-8 2-3h2l2-4h2l2-5 1-18 4-22 7-21 9-17 9-13 9-10 1-2h2v-2l8-7 13-10 16-9 14-6 12-4 16-3 9-1h22l20 3 17 5 21 10 12 8 10 8 12 11 11 14 9 15 7 15 6 20 3 21v18l-2 16-4 17-6 16-9 17-10 14-12 13-13 11-18 11-18 8-13 4-14 3-16 2-7 8-14 15-11 12-14 15-9 10-7 8h-2l-10 25-8 22-5 13 2 5 7 10 14 22 11 19 15 30 10 22 9 23 7 19 5 6 34 10 30 8 39-3 23-2 1-4 9-17 12-17 11-13 9-10 11-10 16-12 15-9 16-8 18-7 25-6 17-2h28l23 3 25 7 18 8 17 9 14 10 10 8 13 12 10 11 12 16 8 13 8 16 6 14 6 20 4 17h2v69l-2 2-6 25-6 18-8 16-4 5-7 5-10 3h-9l-10-3-8-6-6-9-3-9v-8l11-33 4-20 1-10v-17l-2-17-5-21-8-20-8-14-10-13-8-9-11-9-10-7-10-6-17-7-16-4-7-1h-29l-17 3-15 5-16 8-12 8-11 9-11 11-9 12-9 15-13 28-5 6-7 4-10 3-38 4-47 4h-10l-71-20-16-7-11-8-11-11-7-11-5-10-12-32-10-23-9-19-13-23-10-17-15-22-8-13-3-9-1-10 2-12 10-28 11-29 6-16 5-10 12-13 4-5h2l2-4 9-9 7-8 15-16 7-8 6-7h2l2-4 9-9 7-8 10-7 7-2 25-1 15-4 16-8 10-8 8-8 6-9 6-14 3-13v-23l-4-15-4-9-7-12-7-8-12-9-12-6-13-4-5-1h-23l-16 4-17 9-13 12-7 10-7 14-4 17v30l-2 8-7 11-7 8h-2l-2 4-8 8-7 8-15 16-11 12-15 16-1 2h-2l-2 4-12 12-16 8-29 14-33 15-11 3h-12l-12-3-17-9-18-10-24-12-32-13-36-12-40-10-37-6-32-3-27-1-14-1-12-4-11-7-7-8-13-20-30-48-7-14-5-22-14-71v-11l4-10 7-8 14-11 10-9 9-9 11-17 8-18 5-22v-29l-4-18-6-16-7-13-8-11-11-12-14-11-15-9-16-7-14-4-17-3h-32l-20 4-15 5-17 8-14 10-8 7h-2v2h-2l-2 4-9 10-9 15-6 12-6 21-1 6v28l3 15 6 18 9 16 11 14 11 11 11 8 13 8 18 8 18 6 8 6 6 9 3 9 19 95v9l-12 73-5 25-5 9-8 7-44 21-26 14-22 14-17 12-12 9-15 12-8 7-10 9-10 7-12 4-17-2-55-10-11-4-19-14-20-15-26-20-8-7-4-7-3-10-3-15-5-13-7-12-11-12-14-9-12-5-12-3h-24l-16 4-15 8-10 8-9 10-8 14-5 16-1 7v17l3 15 6 14 7 10 9 10 14 9 8 4 14 4 5 1h20l19-4h9l11 4 28 21 21 16 13 10 7 8 19 38 7 17 3 11v19l-4 15-14 34-9 25-8 28-7 30-4 23-3 22-2 31v82l-4 13-6 12-7 9-8 8-20 14-18 13-17 12-14 10-10 6-16 6-47 15-39 12-8 2-10-1-9-4-14-11-10-7-17-9-18-6-16-3h-26l-20 4-12 3h-15l-10-5-7-7-5-11v-15l4-9 7-8 10-6 21-6 19-3 10-1h21l19 2 19 4 18 6 18 8 17 10 9 7 7-1 37-12 32-10 10-6 34-24 18-13 9-6 1-6-1-21v-47l2-30 4-33 5-28 7-30 7-25 10-29 8-20 8-19-1-9-14-28-4-7-11-8-17-13-10-7-22 2h-10l-18-2-17-4-18-7-17-9-13-10-12-11-12-14-11-18-7-15-6-20-3-21v-17l3-21 4-15 8-19 9-15 9-12 6-7h2l2-4h2v-2l14-11 11-7 16-8 21-7 18-3h29l18 3 16 5 16 7 15 9 11 9 10 9 10 11 12 18 7 15 6 18 2 10 4 2 21 16 19 14 5 3 35 6h7l15-13 17-13 19-14 20-13 20-12 18-10 32-16 3-13 9-56-14-71-24-11-18-11-12-9-10-9-4-3v-2l-3-1-7-8-10-12-11-17-8-16-6-15-5-17-3-16-1-9v-30l4-24 8-26 8-16 6-11 11-16 11-13 13-13 14-11 15-10 19-10 21-8 24-6 13-2z"/>
<path transform="translate(1705 1e3)" d="m0 0h12l10 4 8 7 7 10 7 13 10 14 10 11 11 9 14 9 14 7 15 5 17 3h28l24-5 3-1h14l10 4 7 6 6 10 2 11-2 11-6 10-8 6-10 4-21 5-21 3h-26l-22-3-23-6-20-8-20-11-16-12-13-11-10-10-9-11-12-17-1-2-36 3-19 2-28 13-23 11-9 6-3 11-6 33-8 33-9 30-10 29 2 9 10 19 8 13 10 7 27 18 6 2 9-2 10-1h25l19 3 16 5 12 5 12 6 14 10 10 9 7 6 11 14 9 14 8 17 5 16 3 15 1 10v18l-2 18-6 21-8 18-6 10-10 14-6 7-8 7-9 8-16 10-14 7-21 7-24 4h-20l-19-3-18-5-18-8-16-10-13-11-12-12-9-12-8-13-8-18-4-13v-2l-5-2-43-29-12-2-24-3-8 1-8 6-10 9-14 12-12 10-16 12-18 13-17 11-20 12-19 11-3 3-2 6-2 21-3 47v18l20 80 16 8 13 8 11 8 10 8 5 5 11 12 12 17 10 18 8 21 5 21 2 16v24l-2 18-5 19-6 17-11 21-10 14-9 11-14 14-13 10-15 9-16 8-21 7-25 5h-37l-17-3-18-5-19-8-18-10-12-9-10-9-8-7-9-10-12-17-12-23-8-24-4-22-1-13v-11l2-19 4-19 5-15 6-13 7-14 8-11 5-7-4-18-17-66-9-16-30-48-9-8-11-3-43-2-32-3-37-6h-16l-10 5-15 15-1 2h-2l-2 4-12 12-1 2h-2l-2 4-14 14-4 6-11 23-17 35-22 46 1 7 4 17 2 15v20l-3 20-5 17-8 18-10 16-11 13-13 13-16 11-12 7-21 8-17 4-16 2h-18l-20-3-17-5-16-7-14-8-13-10-9-8-7-8-8-10-8-13-9-19-6-21-2-13v-28l3-18 5-17 10-21 8-12 9-12h2l2-4 7-7 13-10 13-8 19-9 5-8 12-24 11-23 12-25 13-28 4-22 8-59v-7l-4-6-14-12-12-11-13-12-21-21-7-8-10-11-11-14-14-18-14-20-14-22-6-5-23-1h-64l-42 13-25 8-9 27-9 19-11 18-13 16-6 7-8 7-10 9-18 12-14 8-19 8-21 6-23 4h-36l-23-4-18-5-21-9-15-8-12-8-10-8-13-12-8-8-13-17-8-13-8-15-8-21-7-27v-53l4-16 5-17 5-9 4-5 8-5 7-2h12l10 4 8 7 5 7 2 6v13l-5 19-2 14v22l3 17 6 18 10 19 11 14 10 10 11 8 15 9 18 7 18 4 12 1h11l22-3 18-6 19-10 12-9 10-9 10-12 9-15 6-14 5-17 3-16 4-9 4-5 9-6 14-5 63-20 25-7h56l40 1 15 3 16 7 11 8 5 4 11 14 12 19 12 17 12 16 9 11 13 15 14 15 15 15 2 1v2l4 2 13 12 7 5v2l4 2 9 9 9 14 4 8 4 15 1 15-5 39-7 50-4 14-12 26-8 16-17 35-10 22-8 16-8 15-6 7-11 5-19 7-11 7-10 9-7 8-9 17-4 16v23l4 15 8 16 7 9 8 8 11 7 13 6 13 3h23l15-4 14-7 11-8 7-7 6-8 7-15 4-17v-19l-4-16-6-17v-11l6-15 21-43 11-23 17-35 9-19 7-9 9-9 2-3h2l2-4 14-14 7-8 8-8 1-2h2l2-4 8-8 13-10 17-8 14-4 9-1h15l22 3 28 4 34 3 37 2 17 3 16 7 11 7 11 9 10 12 25 40 13 21 8 14 6 21 16 64 6 25v15l-5 10-9 11-8 10-9 17-5 15-3 18v14l3 18 6 18 8 14 8 11 8 8 12 9 14 8 13 5 13 3 7 1h23l21-5 14-6 14-9 11-9 8-9 9-14 7-15 4-16 1-5v-27l-3-15-6-16-8-14-7-9-7-8-13-10-12-7-25-10-10-9-4-7-8-30-16-63-4-17v-21l5-74 3-16 5-12 6-11 7-9h2l2-4 14-10 29-17 20-13 16-11 15-12 14-11 15-14 11-9 10-7 13-6 15-4h23l40 5 10 3 16 10 43 29 14 10 8 9 4 12 5 18 7 13 8 10 10 9 14 8 12 4 13 2h12l17-3 16-7 14-10 9-10 8-14 4-11 2-10v-21l-4-16-8-16-6-8-4-5-12-9-14-7-14-4-15-1-17 2-15 4-7 1-8-2-12-6-34-23-22-15-9-9-13-23-12-22-5-13-2-9v-21l4-16 12-36 7-25 7-33 6-31 6-15 9-13 11-11 13-8 16-8 41-20 10-4 26-3z"/>
<path transform="translate(985,600)" d="m0 0h49l32 3 36 6 13 4 10 7 6 9 2 6v13l-4 10-8 9-7 4-9 2-11-1-37-6-19-2-22-1h-14l-32 2-33 5-32 8-21 7-24 10-25 12-20 12-15 10-14 10-13 11-11 9-23 23-9 11-8 9-13 18-10 15-9 15-13 25-9 21-7 19-8 28-5 24-3 18-2 24v44l3 30 5 28 8 30 10 28 11 24 13 25 11 17 12 17 13 16 12 14 20 20 11 9 9 8 19 14 22 14 22 12 28 13 28 10 26 7 26 5 25 3 12 1h43l30-3 28-5 30-8 25-9 23-10 20-10 20-12 19-13 13-10 14-12 8-7 8-8h2l2-4 10-10 1-2h2l2-4 14-17 12-17 12-19 12-22 9-19 10-26 8-26 6-28 3-18 2-21 1-33-2-33-4-28-6-27-8-27-11-28-10-21-13-23-16-24-11-14-11-13-9-10-19-19-11-9-15-12-28-20-8-9-4-11v-7l3-10 6-9 8-6 8-3 8-1 9 2 10 5 14 10 11 8 13 10 14 12 12 11 24 24 9 11 11 13 13 18 10 15 13 22 8 15 12 26 9 24 7 21 8 32 4 21 3 22 2 28v41l-2 28-5 32-6 27-7 24-7 20-10 24-12 25-10 18-7 11-8 12-12 17-13 16-6 8h-2l-2 4-5 6h-2l-2 4-17 17-8 7-11 10-16 12-17 13-31 19-18 10-26 12-26 10-29 9-30 7-32 5-35 3h-37l-41-4-28-5-32-8-35-12-21-9-23-11-24-14-16-10-18-13-14-11-15-13-12-11-19-19-9-11-9-10-15-20-14-21-9-15-12-22-12-26-9-23-9-29-7-30-5-31-3-34v-37l2-27 4-29 6-29 9-31 9-25 11-25 10-20 11-19 9-14 11-16 12-16 12-14 11-12 4-5h2l2-4 8-8h2v-2l8-7 11-10 14-11 18-13 18-12 24-14 24-12 29-12 27-9 27-7 32-6 25-3z"/>
<path transform="translate(327,45)" d="m0 0h20l17 2 19 5 15 6 17 9 11 8 14 12 11 12 9 13 8 14 5 11 5 15 4 20 1 10v17l-4 26-7 21-8 16-9 14-9 11-15 15-17 12-17 9-17 6-21 5-7 1h-30l-25-5-21-8-18-10-13-10-10-9-11-12-10-14-11-21-6-18-4-20-1-10v-15l2-17 4-17 7-19 8-15 9-13 12-14 13-12 18-12 16-8 17-6 20-4zm-1 63-17 4-16 8-10 8-10 10-9 14-5 12-3 11-1 7v18l4 17 6 13 7 11 9 10 10 8 15 8 13 4 15 2h9l17-3 15-6 10-6 13-11 8-10 7-12 5-15 2-11v-17l-3-15-5-13-6-11-8-10-10-9-15-9-14-5-10-2z"/>
<path transform="translate(1683,1672)" d="m0 0 22 1 20 4 15 5 16 8 13 8 10 8 12 11 11 13 10 16 8 17 6 20 3 20v22l-2 17-6 21-8 18-6 10-10 14-12 13-11 9-13 9-15 8-16 6-22 5-9 1h-26l-19-3-21-7-16-8-14-9-11-9-13-13-13-18-11-21-5-15-4-18-1-8v-25l3-18 4-15 9-21 10-16 8-10 6-7 8-7 9-8 19-12 16-7 16-5 16-3zm-4 63-16 3-14 6-13 9-11 11-9 14-5 13-3 12v23l4 16 8 16 9 11 7 7 14 9 14 6 17 3h11l14-2 16-6 12-7 12-11 6-7 8-14 4-11 2-9 1-13-2-17-5-15-7-13-9-11-12-10-16-8-13-4-5-1z"/>
<path transform="translate(879,786)" d="m0 0h18l21 3 16 5 18 8 18 12 12 11 10 10 9 13 9 16 6 15 4 16 2 15v22l-3 19-5 16-6 15-10 16-8 10-9 10-13 11-18 11-16 7-17 5-17 3h-27l-20-4-15-5-17-8-12-8-11-9-14-14-11-15-10-19-6-18-3-14-1-7v-26l3-18 8-24 8-15 11-16 7-8h2l2-4 8-7 14-10 21-11 20-6 11-2zm-2 63-16 4-13 7-10 8-9 10-8 14-4 13-1 5v22l4 15 8 15 11 12 10 8 15 7 12 3h23l14-4 14-7 10-8 8-8 7-11 5-14 2-9v-20l-4-16-7-14-6-8-9-9-11-7-14-6-10-2z"/>
<path transform="translate(291,1585)" d="m0 0h31l17 4 15 6 16 10 12 11 7 7 9 13 8 16 4 12 3 19v15l-2 16-7 21-9 16-11 13-9 9-13 9-16 8-17 5-12 2h-22l-17-3-16-6-16-9-13-11-8-8-10-14-8-16-5-16-2-11v-23l4-20 6-15 8-14 8-10 6-7h2v-2l13-10 16-9 17-6zm10 62-12 3-11 7-8 9-6 12-1 5v16l5 14 8 10 10 7 11 4 12 1 11-2 12-6 6-5 6-8 4-8 2-8v-15l-4-12-6-9-9-8-10-5-7-2z"/>
<path transform="translate(959,1140)" d="m0 0h22l17 3 13 5 12 6 12 9 10 9 9 11 9 16 6 16 3 16v20l-3 16-6 17-9 16-12 14-12 10-13 8-15 6-16 4-6 1h-20l-15-3-15-5-15-8-16-13-9-10-9-14-6-13-4-13-2-10v-25l4-18 6-15 8-13 8-10 10-10 11-8 15-8 16-5zm11 62-13 2-9 5-8 7-5 9-3 8v17l5 12 9 10 10 6 8 2h12l10-3 6-3 10-9 5-9 2-8v-14l-4-11-7-10-10-7-9-3z"/>
<path transform="translate(1178,941)" d="m0 0h26l17 4 16 8 9 6 10 9 8 9 8 13 6 15 3 14 1 13-3 22-5 14-8 14-8 10-8 8-10 7-16 8-17 5-8 1h-17l-16-3-13-5-11-6-10-8-12-12-9-14-5-11-4-13-1-6v-24l4-17 6-14 8-12 9-10 9-8 13-8 11-5zm9 62-9 3-8 6-6 12v14l5 10 8 7 8 3h13l10-5 5-5 4-6 2-8v-7l-4-11-7-8-8-4-5-1z"/>
</svg>
