<svg version="1.0" xmlns="http://www.w3.org/2000/svg"
 width="512.000000pt" height="512.000000pt" viewBox="0 0 512.000000 512.000000"
 preserveAspectRatio="xMidYMid meet">

<g transform="translate(0.000000,512.000000) scale(0.100000,-0.100000)">
<path fill="#157dc7" d="M2830 4364 c-14 -2 -59 -9 -100 -15 -336 -49 -654 -270 -835 -579
-38 -65 -54 -100 -95 -207 l-9 -21 -61 19 c-141 44 -280 31 -417 -36 -141 -69
-257 -221 -286 -372 l-11 -60 -86 -6 c-342 -25 -624 -260 -711 -592 -27 -105
-29 -271 -4 -370 61 -244 237 -452 458 -544 129 -53 196 -61 512 -61 l286 0
-3 53 -3 52 -315 5 c-310 5 -316 6 -388 32 -107 39 -177 83 -263 168 -94 93
-159 216 -185 350 -48 243 54 509 250 656 131 99 235 135 416 143 143 7 130
-4 148 123 14 93 51 168 118 238 128 134 318 176 484 105 120 -50 132 -46 164
60 94 311 358 582 676 693 400 139 836 37 1136 -265 165 -166 272 -385 304
-618 7 -49 17 -95 22 -102 5 -6 35 -15 66 -18 287 -33 512 -186 635 -432 179
-355 61 -794 -271 -1007 -162 -104 -255 -126 -539 -126 l-213 0 0 -55 0 -55
208 0 c162 0 226 4 297 19 414 85 708 448 707 871 0 255 -81 449 -262 630
-134 134 -277 212 -451 246 l-87 17 -16 88 c-87 475 -461 854 -940 953 -79 16
-287 29 -336 20z"/>
<path fill="#77bf6b" d="M2497 2679 c-222 -24 -417 -117 -578 -278 -372 -371 -381 -960 -20
-1343 369 -392 981 -407 1369 -34 252 242 355 604 267 940 -120 458 -566 766
-1038 715z m317 -129 c291 -75 523 -301 612 -595 24 -80 27 -106 27 -235 0
-129 -3 -155 -27 -235 -74 -243 -229 -428 -451 -535 -143 -69 -212 -85 -375
-85 -163 0 -232 16 -375 85 -222 107 -377 292 -451 535 -24 80 -27 106 -27
235 0 129 3 155 27 235 96 317 352 549 673 610 102 19 262 13 367 -15z"/>
<path fill="#77bf6b" d="M2148 2158 c-23 -19 -27 -40 -12 -68 7 -14 96 -108 198 -210 l186
-185 -195 -195 c-107 -108 -196 -203 -196 -211 -4 -42 17 -69 55 -69 12 0 93
73 218 197 l198 197 199 -198 c176 -175 202 -197 227 -194 39 4 58 42 39 77
-8 14 -97 109 -199 211 l-186 185 195 195 c107 108 196 203 196 211 4 42 -17
69 -55 69 -12 0 -93 -73 -218 -197 l-198 -197 -198 197 c-198 197 -219 212
-254 185z"/>
</g>
</svg>
