<?xml version="1.0" encoding="UTF-8"?>
<svg version="1.1" viewBox="0 0 2048 2048" width="512" height="512" xmlns="http://www.w3.org/2000/svg">
<path transform="translate(1517,125)" d="m0 0h13l10 6 5 8 1 3v18l-1 15v67l3 40 5 40 7 36 7 27 8 26 10 25 8 18 13 23 8 12 12 16 13 15 7 7 2 1v2l4 2 8 9 3 6v10l-8 26-11 35-12 36-22 64-14 41-10 34-13 50 34-17 23-11 33-16 23-11 13-6h2l-10-28-30-80-3-9v-10l4-9 7-6 8-3 10 1 8 4 6 8 8 20 17 46 10 26 7 20 9 24 1 10-2 6-4 6-6 5-16 8-17 8-16 8-17 8-16 8-33 16-89 43-23 11-39 19-28 13-16 8-39 19-29 14-52 25-23 11-41 20-73 35-20 9-28 7-45 10-86 20-7 3-2 2v8l3 4 7 1 62-13 13-1 8 3 7 7 3 7 1 6-2 9-6 8-14 12-13 11-10 8-14 12-11 9-13 11-10 8-9 8-10 8-14 12-25 20-18 13-34 25-12 9-18 13-7 6-3 7v8l4 8 8 5h8l53-15 68-20 56-16 13-5 16-9 13-12 9-11 12-20 16-26 17-28 10-16h2v-2l10-6 36-17 24-11 28-13 78-36 33-15 34-16 33-15 30-14 20-9 30-14 35-16 34-16 33-15 30-14 28-13 37-17 30-14 33-15 32-15 33-15 34-16 44-20h2l-12-36-15-43-17-49-15-43-21-61-15-43-17-49-10-28-10-29-14-40-10-29-15-44-15-43-18-52-15-43-11-31-10-29-5-17 1-8 4-8 7-6 5-2h12l8 4 6 7 5 12 15 44 15 43 17 49 15 43 21 61 15 43 17 49 15 43 14 41 14 40 19 55 11 31 10 29 15 44 13 37 12 34 10 30v11l-4 8-7 6-16 8-28 13-69 32-37 17-34 16-33 15-69 32-16 7-49 23-24 11-33 15-1 12v42l1 31 4 54 6 49 6 37 9 44 9 37 10 36 10 32 10 29 17 44 13 31 16 39 14 34 12 30 11 28 16 42 12 33 12 36 15 48 11 40 9 36 9 42 10 56v11l-4 8-6 6-5 3h-16l-10-8-4-9-9-50-8-39-15-60-11-37-15-47-15-43-7-19-18-47-19-47-19-46-16-39-13-32-16-43-14-43-8-28-9-34-11-51-8-47-6-45-4-43-2-35-1-44v-8l1-4-65 30-35 16-32 15-104 48-18 8-14 7-20 9-26 12-13 22-7 11-11 18-16 26-9 13-9 10-6 7-14 11-9 6-17 9-27 9-42 12-55 16-59 17-16 4h-21l-12-3-12-6-11-9v-2h-2l-7-10-6-12-3-12v-17l3-13 6-12 6-8 4-5 17-13 76-56 14-11 15-13 10-8 15-13 16-13 3-2-15-6-11-7-9-9-7-12-4-14v-14l3-12 7-14 9-10 11-7 13-5 152-35 13-5 29-14 58-28 25-12 35-17 29-14 23-11 31-15 23-11 31-15 23-11 35-17 27-13 3-1 3-9 8-36 11-43 9-30 13-40 11-31 10-29 14-42 14-43 1-7-9-9-9-11-9-10-13-18-11-18-10-18-11-23-10-26-9-28-9-36-6-32-5-38-3-34-1-23v-52l2-35 2-9 6-9 7-4z"/>
<path transform="translate(1209,124)" d="m0 0h12l8 4 7 8 2 5v11l-5 21-7 22-7 20-10 23-15 30-15 25-8 12-13 19-11 14-9 11-8 10-12 13-7 8-1 1h153l20-3 21-6 17-7 18-10 16-12 13-12 9-10 12-17 6-10 9-21 6-21 4-28 7-73 3-14 4-6 10-6h13l8 4 6 7 2 4v21l-8 79-4 23-5 19-6 16-11 23-9 14-8 11-11 13-4 5-8 7-11 10-15 11-13 8-19 10-25 9-20 5-20 3-14 1-197 1-27 16-22 14-12 8-17 12-13 10-7 7-7 10-8 16-4 13-2 16 1 17 5 20 6 16 8 16 7 12 10 13 15 15 14 10 16 9 17 7 17 5 25 4 8 4 5 6 3 6 1 7-3 10-7 8-31 15-28 13-34 16-35 16-29 13-19 10-23 13-22 14-12 8-16 12-13 10-14 12-8 7-10 9-22 22-1 2h-2l-2 4-11 12-11 14-10 13-16 24-13 21-13 24-14 31-10 26-8 24-8 29-8 39-4 29-3 42v44l3 41 5 35 5 26 8 32 12 37 11 28 13 29 10 19 10 18 11 18 14 21 11 15 10 13 11 13 7 8 9 10 2 4h2l7 8 7 7 2 1v2l4 2 9 9 11 9 14 12 19 14 24 16 20 12 16 9 23 11 25 11 34 12 28 8 30 7 29 5 36 4 36 2 89 1 9 4 6 7 3 7v9l-3 7-7 8-8 3h-106l-47-4-33-5-34-7-34-9-33-11-32-13-29-14-21-11-20-12-7-5h-2l-8 53-5 44-3 30-4 67-1 36-1 14-4 8-4 5-7 4h-15l-9-7-5-7-1-3v-35l2-47 4-54 5-47 6-45 7-40v-8l-13-11-14-12-13-12-22-22-9-11-12-13-11-14-15-20-20-30-13-22-10-18-15-30-12-28-11-30-10-32-9-36-7-38-4-31-2-23-1-18v-46l2-30 3-27 6-36 7-31 8-29 13-37 14-33 8-16 14-26 13-21 16-24 14-18 8-10 14-17 7-8h2l2-4 28-28 8-7 14-12 14-11 18-14 24-16 19-12 21-12 24-13 33-15 27-12 23-11 11-5-15-8-21-14-15-13-13-13-11-14-9-14-7-12-8-18-8-24-5-25v-29l3-17 5-16 10-21 9-13 11-13 11-10 18-13 33-22 26-16 17-10 14-12 22-22 7-8 12-13 1-2h2l2-4 9-11 14-18 11-16 13-20 14-25 13-27 10-26 9-31 4-14 4-8 8-6z"/>
<path transform="translate(445)" d="m0 0h17l10 9 5 10 8 18 9 15 11 14 5 5v2h2v2l4 2 10 9 15 10 16 8 15 6 21 5 23 2 184 1 7 2 8 7 3 5 1 4v373l-2 26-3 27-4 23-6 27-8 28-9 26-9 22-11 24-7 9-10 4h-10l-8-4-6-7-3-7v-7l5-14 10-22 8-20 10-32 7-28 4-22 4-31 1-14 1-42v-311l-169-1-17-2-22-5-21-7-21-10-19-12-11-9-10-9-14-14-13-17-3-3-10 14-10 11-7 8h-2v2l-11 9-13 10-15 9-15 8-15 6-25 7-18 3-10 1-168 1v323l2 43 4 31 6 31 8 30 12 34 12 27 11 22 14 24 15 22 9 12 12 15 9 11 8 8 7 8 11 11 8 7 11 10 10 8 17 13 22 15 29 17 32 16 33 15 15 7h5l15-7 41-19 30-15 25-15 16-11 24-18 15-13 10-9 6-6h2l2-4h2l2-4 13-13 9-11 6-8h2l2-4 10-13 7-5 8-2 8 1 8 4 6 7 2 5v12l-5 9-11 14-9 11-9 10-14 16-8 7-13 13-8 7-13 11-14 11-17 12-15 10-25 15-27 14-33 16-44 20-4 1h-10l-16-7-41-19-20-9-19-10-17-9-21-13-16-11-16-12-14-11-14-12-16-15-18-18-7-8-12-14-14-18-13-18-11-17-13-22-15-29-11-25-10-27-8-26-7-27-6-34-4-35-1-17v-374l5-10 7-6 5-2 188-1 20-2 21-5 18-7 17-9 14-10 10-9 5-5 10-11 7-10 8-14 8-18 5-10h2v-2z"/>
<path transform="translate(447,131)" d="m0 0h12l8 4 14 11 10 7 16 10 16 8 16 7 22 7 25 5 22 2 117 1 8 3 5 5 4 5 2 9v275l-1 27-4 37-5 26-7 28-9 27-11 27-8 16-12 23-11 18-14 20-11 14-9 11-3 4h-2l-2 4-7 8h-2l-2 4-7 6-15 15-11 9-16 13-16 11-17 11-21 12-16 8-31 15-15 6-9 1-16-7-30-14-24-12-15-9-14-9-17-12-14-11-13-11-3-2v-2l-4-2-28-28-7-8-13-16-12-16-8-12-13-21-12-22-11-24-9-24-8-24-7-29-5-29-3-28-1-16v-220l2-7 4-6 9-6 4-1h7l9 3 5 5 4 5 2 8 1 226 3 32 6 32 7 26 10 28 11 25 12 23 11 18 14 20 8 10 9 11 1 3h2l14 16 8 7 9 9 11 9 15 12 24 16 19 11 23 12 24 11 3 1 30-14 19-10 22-13 16-11 12-9 16-13 10-9 5-5h2l1-3 14-14 1-2h2l2-4 8-9 10-13 14-20 15-26 12-24 11-28 7-22 7-28 4-23 3-31 1-273-7 1h-57l-36-1-30-4-25-6-21-7-21-9-19-10-16-10-11-8-6 2-11 8-22 13-21 10-25 9-22 6-23 4-18 2-35 1h-84l-11-2-8-6-4-6-2-7 1-9 4-8 8-6 5-2 115-1 24-2 25-5 17-5 20-8 20-10 21-14 15-12z"/>
<path transform="translate(435,294)" d="m0 0h26l18 2 20 4 16 5 16 6 19 10 11 7 16 12 10 9 7 7 3 8v9l-5 10-5 5-8 3h-10l-8-4-11-10-15-11-16-9-16-7-16-5-21-4-18-1-18 1-25 5-15 5-21 10-12 8-9 7-10 9-9 9-10 13-9 15-9 19-6 20-3 16-1 11v20l3 22 5 18 7 18 9 16 10 14 12 13 8 8 13 10 11 7 19 9 21 7 16 3 8 1h31l18-3 18-5 21-9 15-9 12-9 12-11 9-9 11-15 10-18 6-15 4-13 4-20 1-10v-35l3-8 9-8 5-2h11l8 4 7 8 3 10v39l-4 26-7 24-11 25-13 22-11 14-12 13-12 12-13 10-17 11-21 11-22 8-21 5-21 3h-37l-21-3-26-7-15-6-17-8-16-10-12-9-14-12-10-10-9-11-10-13-9-15-8-16-7-18-6-21-4-24v-38l4-26 7-24 10-23 9-16 8-12 11-14 8-9h2l2-4 16-14 16-11 15-9 19-9 21-7 23-5z"/>
<path transform="translate(654,347)" d="m0 0 9 1 7 4 6 7 3 8-1 9-4 8-18 18-1 2h-2v2h-2l-2 4h-2l-2 4-16 16h-2v2h-2v2h-2v2l-7 6-5 6-7 6-5 6-7 6-1 2h-2v2h-2l-2 4-4 2v2h-2v2l-7 6-5 6-4 4h-2v2h-2v2h-2v2h-2v2h-2v2h-2v2h-2v2h-2v2h-2v2h-2l-2 4-87 87-9 7-8 3h-7l-10-5-98-98-4-8v-12l4-8 6-5 6-3h12l10 5 77 77h3l6-7h2l2-4 4-4h2l2-4 7-6 5-6 4-4h2l2-4h2l2-4h2l2-4h2l2-4h2v-2h2v-2h2v-2h2v-2l7-6 5-6 7-6 5-6h2v-2h2v-2h2v-2h2v-2l7-6 5-6 7-6 5-6 7-6 5-6 7-6 5-6 7-6 5-6 7-6 5-6 7-6 5-6h2l2-4h2l2-4 6-5 6-7h2l2-4 9-8 6-3z"/>
<path transform="translate(462,998)" d="m0 0h10l8 3 7 7 3 7 1 13v36l2 22 5 19 9 21 10 16 12 14 11 10 12 9 5 5 5 8 1 8-3 9-7 8-6 3-4 1h-8l-12-6-13-10-15-14-10-11-10-14-8-13-8-16-7-19-5-22-2-15v-62l4-8 8-7z"/>
<path transform="translate(803,2047)" d="m0 0"/>
<path transform="translate(442,1)" d="m0 0"/>
<path transform="translate(464)" d="m0 0"/>
</svg>
