<?xml version="1.0" encoding="UTF-8"?>
<svg version="1.1" viewBox="0 0 2048 2048" width="512" height="512" xmlns="http://www.w3.org/2000/svg">
<path transform="translate(695,85)" d="m0 0h61l41 3 41 5 44 8 40 10 30 9 38 13 34 14 26 12 17 8 33 18 22 13 23 15 16 11 19 14 11 9 10 9 8 7 10 9 7 7 8 7 22 22 7 8 9 9 7 8 9 10 9 11 9 10 9 11 13 18 11 18 9 15 10 18 12 24 11 26 9 24 10 34 7 31 5 33 2 20v19l23-3 35-3h54l36 3 35 5 29 6 37 10 29 10 29 12 18 8 19 10 18 10 21 13 12 8 18 13 18 14 14 12 10 9 8 7 27 27 7 8 12 14 12 15 13 18 9 13 14 22 14 25 9 17 13 29 11 29 9 28 7 26 6 29 6 40 2 1v112l-2 2-5 35-7 36-9 33-11 32-8 20-11 25-10 19-8 15-12 20-10 15-12 17-8 11-14 17-7 8-9 11h-2l-2 4-28 28-8 7-10 9-11 9-13 10-18 13-15 10-16 10-21 12-23 12-24 11-34 13-25 8-27 7-23 5-30 5-38 4-15 1h-46l-37-3-35-5-23-4-20 20-5 6-7 6-5 6-7 6-5 6-7 6-5 6-7 6-5 6-7 6-5 6-7 6-5 6-7 6-5 6-7 6-5 6-7 6-5 6-7 6-5 6-7 6-5 6-7 6-5 6-7 6-5 6-7 6-5 6-7 6-5 6-8 7-10 9-10 5-7 2h-12l-12-4-11-8-378-378-4 1-380 380-10 6-10 3h-12l-12-4-11-8-279-279-7-10-1-4h-2v-26l8-13 12-13 370-370-6-7-167-167v-2h-2l-7-8-9-9-7-8-10-11-9-11-13-16-15-20-12-17-15-23-13-22-15-28-11-24-11-27-12-37-7-28-6-33-4-35-1-16v-35l2-28 5-36 6-28 6-23 10-30 10-25 11-24 14-27 13-22 20-30 16-21 11-14 9-10 9-11 15-16 23-23 8-7 11-10 11-9 13-11 20-15 15-11 15-10 17-11 25-15 24-13 19-10 28-13 29-12 32-12 39-12 35-9 32-7 38-6 36-4zm1 81-38 3-31 4-27 5-28 6-30 8-28 9-31 11-35 15-19 9-19 10-22 12-24 15-18 12-18 13-9 7-14 11-14 12-8 7-15 14-24 24-7 8-12 14-1 4 8 7 188 188 5-1 28-13 44-17 34-11 46-12 42-8 29-4 33-3 18-1h55l40 3 40 5 33 6 34 8 28 8 41 14 32 13 27 12 4 1 196-196-2-4-9-11-14-15-7-8-16-16-8-7-10-9-11-9-16-13-16-12-19-13-15-10-18-11-16-9-22-12-27-13-33-14-30-11-29-9-30-8-33-7-30-5-34-4-30-2zm-520 299-10 18-15 31-9 23-8 24-7 28-4 21-3 23-1 13v44l2 23 4 26 6 27 8 27 10 27 8 18 12 25 11 20 10 16 16 24 14 19 11 14 11 13 8 10h2l2 4 15 16 10 10 3 4h2l2 4h2l2 4h2l2 4h2l2 4h2l2 4h2l2 4h2l2 4h2l2 4h2l2 4h2v2h2v2h2l2 4h2l2 4h2l2 4h2l2 4h2v2h2v2h2v2h2v2h2v2h2v2h2v2h2v2h2v2h2v2h2v2h2v2h2v2h2v2h2v2h2v2h2v2h2v2h2v2h2v2h2v2h2v2h2v2l8 7 4 5 8 7 43 43 4-1 218-218-6-7-486-486zm1100 1-8 7-1170 1170 1 4 12 11 42 42 1 2h2v2h2v2h2v2l4 4h2v2h2v2h2v2h2l2 4h2v2h2v2h2l2 4h2l2 4h2l2 4h2l2 4h2l2 4h2l1 3 8 7 109 109 7-6 6-7 7-6v-2l4-2v-2l4-2v-2l4-2v-2l4-2v-2l4-2v-2l4-2v-2l4-2v-2l4-2v-2l4-2v-2l4-2v-2l4-2v-2l4-2v-2l4-2v-2l4-2v-2l4-2v-2l4-2v-2l4-2v-2l4-2v-2l4-2v-2l4-2v-2l4-2v-2l4-2v-2l4-2v-2l4-2v-2l4-2 5-6 7-6 5-6 7-6 5-6 7-6 5-6 7-6 5-6 7-6v-2l4-2v-2l4-2 5-6 7-6 5-6 7-6 5-6 7-6 5-6 7-6 5-6 7-6 4-4v-2l4-2v-2l4-2v-2l4-2 4-4v-2l4-2v-2l4-2v-2l4-2 4-4v-2l4-2v-2l4-2 5-6 3-2v-2l4-2v-2l4-2v-2l4-2v-2l4-2v-2l4-2v-2l4-2v-2l4-2v-2l4-2 5-6 3-2v-2l4-2v-2l4-2v-2l4-2v-2l4-2v-2l4-2v-2l4-2 4-4v-2l4-2v-2l4-2v-2l4-2v-2l4-2 4-4v-2l4-2v-2l4-2v-2l4-2v-2l4-2v-2l4-2v-2l4-2v-2l4-2v-2l4-2v-2l4-2 4-4v-2l4-2v-2l4-2v-2l4-2v-2l4-2v-2l4-2v-2l4-2v-2l4-2v-2l4-2v-2l4-2v-2l4-2v-2l4-2v-2l4-2v-2l4-2v-2l4-2v-2l4-2v-2l4-2v-2l4-2 4-4v-2l4-2v-2l4-2v-2l4-2v-2l4-2 4-4v-2l4-2v-2l4-2v-2l4-2v-2l4-2v-2l4-2v-2l4-2 4-4v-2l4-2v-2l4-2v-2l4-2 12-12v-2l4-2v-2l4-2v-2l4-2v-2l4-2 8-8v-2l4-2v-2l4-2 4-4v-2l4-2v-2l4-2 17-17 1-2v-55l2-30 4-32 5-28 7-30 12-39 8-21 11-26 9-19 12-22 13-22 16-24 24-32 9-10 9-11 5-5v-2h2l7-8 18-18 8-7 11-10 10-8 18-14 18-13 25-16 26-15 32-16 29-12 20-7 11-4 1-4-1-26-3-29-5-28-7-28-9-27-11-27-14-29-6-11zm-573 137-39 3-31 4-36 7-28 7-39 12-26 10-20 8v4l242 242 7-6 238-238-2-2-27-11-31-11-31-9-33-8-28-5-30-4-40-3zm770 127-33 3-36 6-36 9-30 10-24 10-24 11-17 9-22 13-12 8-18 13-13 10-14 12-11 9-27 27-7 8-12 14-13 17-12 17-13 20-11 19-8 16-12 26-8 20-10 31-7 28-5 26-3 21-3 37v35l3 37 4 28 6 28 7 26 10 29 12 29 15 30 13 22 12 18 10 14 10 13 11 13 10 11 7 8 20 20 8 7 14 12 18 14 20 14 21 13 18 10 16 8 19 9 29 11 21 7 27 7 30 6 30 4 24 2h45l33-3 33-5 27-6 27-8 26-9 30-13 28-14 25-15 19-13 19-14 13-11 14-12 10-10 6-5 7-8 10-10 9-11 11-13 14-19 8-12 13-21 10-18 11-22 7-16 9-24 8-24 8-32 5-27 3-23 2-25v-49l-2-26-6-40-7-29-7-24-7-21-12-29-16-32-13-22-14-21-14-19-14-17-12-13-11-12-12-12-8-7-10-9-14-11-13-10-16-11-19-12-21-12-26-13-32-13-27-9-30-8-31-6-34-4-15-1zm-507 601-39 39v2l-4 2-4 4v2l-4 2-80 80v2l-4 2v2l-4 2v2l-4 2-12 12v2l-4 2-12 12v2l-4 2v2l-4 2-3 3v2l8 7 39 39 1 2h2v2h2l2 4h2l2 4h2v2h2v2h2l2 4h2l2 4h2v2h2v2h2v2h2v2h2l2 4h2l2 4h2l2 4h2l2 4h2l2 4h2l2 4 16 16h2l2 4h2l2 4 12 12h2l2 4h2l2 4 4 4h2l2 4h2l2 4 8 8h2v2h2v2h2l2 4 8 8h2l2 4 8 8h2l2 4 4 4h2l2 4 4 4h2l2 4 20 20h2v2h2v2h2v2h2v2h2v2h2v2h2v2h2v2h2v2h2v2h2v2h2v2h2v2h2v2h2v2h2v2h2v2h2v2h2v2h2v2h2v2h2v2h2v2l7 6 63 63 4-1 98-98v-2h2v-2h2v-2h2v-2h2v-2h2v-2h2v-2h2v-2h2v-2h2v-2h2v-2h2v-2h2v-2h2v-2h2l7-8 15-15 7-6v-3l-18-8-25-12-19-10-25-15-25-17-21-16-13-11-11-9-7-7-8-7-22-22-7-8-11-12-11-14-14-18-22-33-10-17-12-22-11-22-14-34-12-36-7-23z"/>
<path transform="translate(1420,898)" d="m0 0 194 1 12 4 9 7 7 8 4 9 1 4 1 118 116 1 10 3 10 6 8 9 5 10 2 12v213l-2 14-5 10-8 9-10 6-7 2-9 1h-110l-1 118-3 10-7 10-8 7-8 4-10 2h-224l-11-3-8-5-9-9-5-10-2-10v-114h-113l-11-2-8-4-10-9-5-8-3-6-1-5v-228l4-11 7-10 9-7 8-4 5-1h118v-116l4-13 8-11 8-6 8-4 4-1zm14 81-1 1-1 116-2 8-4 8-5 6v2l-4 2-9 5-7 2-9 1-110 1v133l114 1 10 2 10 5 6 5 7 11 3 10 1 117h133l1-113 2-10 6-12 7-7 11-6 8-2 116-1v-133l-114-1-12-3-11-7-7-9-4-8-2-11-1-113z"/>
</svg>
