<?xml version="1.0" encoding="UTF-8"?>
<svg version="1.1" viewBox="0 0 2048 2048" width="512" height="512" xmlns="http://www.w3.org/2000/svg">
<path transform="translate(428,330)" d="m0 0h93l27 2 25 4 23 6 20 7 22 10 18 10 12 8 7 7 5 10v15l-6 12-8 7-11 4h-11l-8-3-16-9-19-10-21-8-22-6-22-3-19-1h-93l-24 2-22 4-19 6-15 6-16 8-15 9-16 12-12 11-12 12-11 14-10 15-7 12-9 20-12 36-14 46-14 48-17 62-14 54-11 46-10 43-11 50-12 60-12 65-9 55-7 45-8 59-8 69-5 51-4 47-4 57-3 53v10l3 21 6 18 9 17 13 16 10 9 15 10 16 7 14 4 45 7 58 7 52 5 60 4 54 2h54l33-3 29-5 32-8 29-10 30-13 25-13 21-13 17-12 13-10 13-11 10-9 4-4h2l2-4h2l2-4h2l2-4 9-9 9-11 12-15 15-22 12-20 12-23 10-22 10-28 7-24 6-28 4-27 2-26v-36l-3-36-8-76-8-64-1-2-18 13-17 12-18 13-14 10-18 13-12 7-10 2-11-2-8-4-8-9-4-10v-12l5-12 10-9 18-13 42-30 18-13 20-14 36-26 14-10 18-13 17-12 18-13 15-10 25-13 22-8 22-5 14-2 13-1h17l22 2 23 5 24 8 19 9 16 10 16 11 36 26 17 12 36 26 17 12 18 13 17 12 18 13 17 12 15 11 9 7 6 9 2 7v11l-7 14-9 7-7 3h-16l-10-5-36-26-14-10-17-12-18-13-4-3-2 9-6 48-5 42-5 50-2 24-1 27 1 23 4 36 5 26 7 27 1 2 15-1h38l30 3 28 5 28 8 22 8 26 12 20 11 21 14 12 9 16 13 16 15 9 9 7 8 13 16 13 18 11 18 13 24 12 29 8 25 6 25 1 10 56-1 47-2 57-4 62-6 64-8 30-5 17-5 16-8 11-7 12-11 7-7 10-15 6-13 4-12 3-17v-29l-5-80-5-61-5-51-5-46-10-76-10-67-9-53-3-17v-14l3-8 6-8 9-6 8-2h9l11 4 9 8 5 11 6 32 9 55 8 54 7 51 8 69 4 38 6 69 4 54 2 2v89l-2 1-4 17-7 20-12 23-10 14-11 13-8 8-11 9-14 10-18 10-21 8-19 5-38 6-64 8-63 6-57 4-48 2h-52l-1 23-4 30-5 24-8 26-8 21-12 25-11 20-10 15-12 16-7 6-13 4-11-1-10-5-8-9-4-10v-12l4-10 10-14 9-14 9-16 9-19 9-25 7-28 4-29 1-17v-17l-2-24-4-24-6-23-7-20-9-20-10-19-9-14-11-15-11-13-14-15-12-11-14-11-16-11-17-10-16-8-16-7-27-9-27-6-29-3h-34l-27 3-24 5-22 7-18 7-21 10-20 12-11 8-14 11-9 8h-2v2l-8 7-12 13-9 11-13 18-9 15-12 23-8 20-8 26-5 25-3 27v31l3 26 5 25 8 26 6 15 12 25 13 21 9 12 9 11 9 10 19 19 14 11 15 11 19 11 17 9 19 8 25 8 25 5 23 3h46l23-3 24-5 30-10 20-9 17-8 4-1h13l8 3 8 6 6 9 2 7v11l-4 10-7 8-14 8-21 10-24 9-27 8-31 6-26 3-30 1-31-2-27-4-29-7-27-9-25-11-23-12-19-12-18-13-14-12-10-9-9-8v-2h-2l-7-8-10-11-11-14-12-17-11-18-9-16-12-27-8-23-6-21-5-25-3-24-1-11v-34l2-24 4-26 6-25 7-22 10-25 8-17 12-21 8-12 14-20h2l2-4 9-11 11-12 13-13 8-7 16-13 17-12 19-12 29-15 22-9 18-6h2l-7-26-6-30-4-31-2-35v-14l2-37 7-70 9-73 7-48-1-5-18-13-14-10-18-13-15-10-19-10-21-7-17-3-11-1h-13l-18 2-16 4-17 6-15 8-16 11-15 11-17 12-18 13-1 4 10 75 8 69 5 52 1 16v45l-2 25-4 29-5 25-6 24-8 25-9 24-8 19-8 16-12 22-11 18-14 20-10 13-8 10-11 13-3 4h-2l-2 4-20 20-8 7-11 10-10 8-17 13-12 8-17 11-21 12-25 13-24 10-25 9-30 9-28 6-32 5-36 3h-56l-55-2-60-4-52-5-43-5-49-7-23-4-20-6-20-9-18-11-13-10-15-14-11-13-10-15-8-14-8-20-5-17-3-12v-74l2-16 6-80 5-53 7-64 9-69 8-55 8-49 11-62 13-67 12-56 12-53 14-57 18-69 15-53 13-44 15-49 8-24 10-23 8-16 10-16 10-14 18-22h2l2-4 8-8h2v-2l11-9 15-12 17-11 18-10 19-9 19-7 27-7 24-4 9-1z"/>
<path transform="translate(1088,51)" d="m0 0h8l10 3 8 5 7 10 2 7 1 560 2 21 4 17 6 16 10 19 9 12 9 10 8 8 13 10 14 10 6 4 1-8 14-57 18-66 20-65 19-57 10-24 12-23 7-11 12-17 11-13 7-8 15-15 11-9 13-10 17-11 18-10 19-9 19-7 27-7 15-3 18-2 22-1h92l28 2 26 4 23 6 25 9 25 12 22 14 11 8 11 9 12 11 7 6 7 8 12 14 13 18 14 24 9 19 9 24 22 72 15 52 16 58 17 66 12 51 13 57v14l-6 12-8 7-10 4h-13l-9-4-8-7-4-7-4-12-19-83-21-83-12-43-15-53-12-39-12-40-9-24-11-22-12-18-11-14-19-19-14-11-17-11-23-12-22-8-20-5-21-3-20-1h-92l-25 2-21 4-17 5-15 6-17 8-19 12-13 10-10 9-7 6-1 2h-2l-2 4-9 10-12 17-11 19-10 24-23 69-12 40-12 42-16 61-13 55-1 6 4 2 17 12 42 30 18 13 17 12 18 13 14 10 18 13 14 10 10 9 5 9 1 6v8l-3 9-4 6-8 7-7 3-5 1h-8l-9-3-11-7-36-26-17-12-18-13-17-12-18-13-14-10-18-13-17-12-18-13-14-10-18-13-17-12-18-13-13-11-19-19-10-13-11-17-9-17-6-15-7-23-4-24-1-11-1-150v-287l1-130 4-11 8-9 9-5z"/>
<path transform="translate(950,51)" d="m0 0h9l10 3 8 6 6 8 3 12v553l-2 28-5 25-7 21-8 18-10 17-10 14-9 11-4 5h-2l-2 4-4 2v2l-8 7-13 10-18 13-17 12-18 13-14 10-18 13-17 12-14 10-18 13-70 50-18 13-17 12-10 6-8 2h-8l-9-3-6-4-8-9-3-9v-11l4-10 5-7 19-14 17-12 18-13 17-12 36-26 17-12 36-26 8-6-1-8-14-60-21-78-16-53-16-49-11-32-8-20v-13l6-12 9-8 7-3 10-1 12 3 8 6 7 10 8 19 16 47 13 40 15 50 17 63 14 57 2 2 16-12 13-10 10-9 9-10 1-2h2l2-5 9-14 8-18 5-17 3-17 1-567 2-10 5-9 8-7z"/>
<path transform="translate(1202,1452)" d="m0 0h100l13 1 11 4 11 8 8 9 5 10 2 6 1 11v62h66l11 2 12 6 10 9 6 8 5 13 1 27v76l-1 18-5 13-8 11-10 8-12 5-21 2h-54v58l-1 14-4 11-6 10-10 9-9 5-12 3h-116l-12-4-11-7-8-9-6-11-2-7-1-8v-64h-57l-18-2-10-4-10-7-7-8-7-14-2-13v-104l2-11 4-10 7-9 10-9 10-5 11-2h67v-67l3-12 5-10 9-10 8-6 12-5zm16 61-2 1-1 69-4 13-6 10-7 7-10 6-9 3-8 1-65 1-1 75 6 1h47l18 1 13 4 10 7 3 3h2l2 4 6 11 3 11 1 69h76l1-70 4-13 9-13 11-8 9-4 5-1 17-1h51l3-1v-75l-67-1-13-3-12-7-7-7-6-10-3-8-1-4-1-38v-23l-1-10z"/>
<path transform="translate(1430,613)" d="m0 0h14l10 4 17 11 10 8 10 9 9 10 8 13 6 14 13-1 10-4 11-8 3-3h2l2-4 7-7 14-21 7-11 7-6 9-4h13l10 4 8 7 5 8 2 12-2 10-10 19-10 14-8 10-9 10-9 9-17 12-15 8-18 6-15 2-18-1-7-1h-18l-10 4-10 8-7 8-9 15-10 24-5 7h-2v2l-9 5-4 1h-15l-12-6-6-7-4-9-1-4v-8l5-16 12-25 8-12 7-9 11-12 10-9 14-9 2-2-10-9-18-12-7-8-4-11v-9l4-11 4-6 8-6z"/>
<path transform="translate(1410,1119)" d="m0 0 13 2 9 6 6 7 6 14 5 14 9 15 7 8 9 6 8 3 9 1 15-2h28l16 4 15 7 13 8 10 8 12 11 10 11 13 18 9 16 4 9 1 11-2 8-5 8-9 8-8 3h-13l-10-4-8-7-13-21-9-12-9-10-12-9-11-5-14-1-7 16-8 12-9 10-8 8-18 13-14 8-6 2h-13l-10-4-6-5-6-10-2-6v-10l4-11 7-8 19-13 6-5h2l2-5-6-2-13-10-9-8-9-11-9-13-10-19-8-21-2-8v-9l4-10 4-6 8-6 7-3z"/>
<path transform="translate(435,613)" d="m0 0h13l10 4 7 6 10 16 8 12 12 14 11 9 11 6 11 2h5l3-5 8-16 8-11 15-15 18-13 16-8 3-1h12l9 3 7 5 6 9 3 10v7l-3 10-7 9-10 7-13 9-7 6h-2l3 3 11 8 10 9 11 14 10 18 8 20 5 17 2 10-1 11-6 12-7 6-10 4h-15l-10-5-5-4-6-10-6-22-7-17-9-13-9-6-7-2-14 1-16 2-18-1-15-4-16-7-15-10-14-12-8-8-9-11-11-15-11-19-3-10v-7l3-10 4-7h2v-2l9-6z"/>
<path transform="translate(630,1151)" d="m0 0 13 2 8 5 8 9 3 7 1 10-3 12-9 17-6 8-9 10-12 10-21 11-12 4h-2l5 16 6 12 1 5v8l-3 9-6 9-9 6-6 2h-13l-10-4-8-7-8-14-5-12-4-16-1-8v-9l-16 5-12 9-7 6-9 11-7 10-6 10-7 10-8 6-9 3h-12l-9-4-8-7-5-8-2-7 1-12 5-12 9-14 10-14 11-13 12-12 16-12 17-9 16-5 15-2 19 1 20 3h10l10-3 9-5 5-5 4-5 7-14 5-6 12-6z"/>
<path transform="translate(520,925)" d="m0 0h15l22 2 15 4 8 6 6 7 3 8 1 10-3 10-6 9-5 4-10 4-9 1-14-2h-29l-11 3-9 6-8 10-8 6-5 2-12 1-9-2-6-4-5-5-5-8-2-5v-12l4-11 9-12 10-10 10-7 14-7 12-4 16-3z"/>
<path transform="translate(1513,925)" d="m0 0 25 1 16 3 15 5 13 7 13 10 7 7 7 10 4 8 1 4v11l-3 8-6 8-8 6-5 2-12 1-8-2-8-5-8-9-4-5-10-5-8-2h-30l-13 2-10-1-10-5-5-4-6-10-2-7v-7l3-10 4-6 5-5 6-4 15-4z"/>
</svg>
