<?xml version="1.0" encoding="UTF-8"?>
<svg version="1.1" viewBox="0 0 2048 2048" width="512" height="512" xmlns="http://www.w3.org/2000/svg">
<path transform="translate(1151,6)" d="m0 0h14l9 4 8 7 4 7 2 11 8 264 20 649 2 64v21l-3 8-7 11-10 12-11 14-14 17-11 13-12 14-9 10-9 11-7 7-7 8-14 15-2 3h-2l-2 4-10 10-1 2h-2l-2 4-64 64-8 7-9 9h-2v2l-8 7-17 16-8 7-15 13-12 11-11 9-11 10-14 11-10 9-13 10-12 10-13 10-18 14-32 24-19 14-16 11-17 12-48 32-40 25-25 15-24 14-29 16-28 15-17 9-23 11-31 15-41 18-45 18-32 12-36 12-29 9-36 10-28 7-42 9-58 10-17 5-16 8-11 8-12 11-10 14-8 16-5 16-2 9-1 10v14l2 14 5 16 8 16 10 14 10 10 14 10 17 10 26 12 34 12 35 9 33 6 37 5 53 4 21 1h81l49-2 68-4 20-2 52-15 45-14 44-14 36-12 52-17 50-16 50-15 41-11 33-8 38-8 45-7 37-4 15-1h60l34 3 34 5 31 7 31 9 28 10 28 12 25 12 22 12 20 12 18 11 21 11 15 5 25 5 42 6 46 5 27 2 22 1h56l31-2 33-4 27-5 23-6 24-8 19-8 21-11 14-9 13-10 3-1v-2l8-7 10-10 9-11 7-10 12-21 9-21 7-22 6-26 4-30 1-14v-52l-2-28-5-41-8-45-10-43-9-35-14-48-20-61-21-58-8-20-13-33-12-29-13-31-15-35-11-24-11-25-3-8v-22l18-174 7-69 13-126 8-79 7-68 12-117 15-148 6-56 10-100 11-106 2-10 4-8 7-7 8-4 11-1 8 2 6 3 7 6 4 7 2 8v9l-6 57-32 312-8 79-8 77-16 156-8 79-8 77-8 79-8 77-5 49 1 9 18 41 16 36 17 41 16 39 8 21 14 37 17 48 12 36 14 45 13 48 10 42 9 47 6 42 3 30 1 13 2 1v61l-2 3-4 36-6 33-8 28-10 25-8 16-10 18-11 16-11 13-8 10h-2l-2 4-4 4h-2v2l-8 7-16 13-12 8-20 12-24 12-26 10-31 9-28 6-33 5-31 3-17 1h-67l-37-2-50-5-45-6-29-5-22-6-16-6-17-8-20-12-18-11-23-13-24-12-28-12-35-12-36-9-28-5-27-3-15-1h-54l-44 4-39 6-44 9-47 12-48 14-51 16-70 23-50 16-43 14-60 18-33 9-15 2-79 5-54 2h-79l-55-3-48-5-37-6-41-9-30-9-27-10-24-11-17-9-19-12-13-11-11-10-9-11-9-12-9-16-8-18-6-23-3-23-1-3v-10l5-31 6-21 7-16 10-18 8-11 9-11 6-5 5-5 9-8 15-10 19-10 17-6 21-5 47-8 47-10 46-12 39-12 36-12 35-13 39-16 25-11 29-13 19-9 19-10 24-12 22-12 25-14 24-14 20-12 21-13 25-16 33-22 19-13 18-13 14-10 18-13 18-14 16-12 16-13 13-10 13-11 14-11 10-9 11-9 15-13 12-11 8-7 10-9 8-7 33-31 8-8h2v-2h2v-2l8-7 29-29 1-2h2v-2h2v-2h2l2-4 17-17 7-8 7-7 7-8 13-14 7-8 8-10h2l2-4 9-10 9-11 2-3h2l2-4 9-11 11-13 8-11 1-2-3-103-11-355-13-425-3-91v-12l3-10 6-8 8-6z"/>
<path transform="translate(1202,1368)" d="m0 0 10 1 10 5 7 8 4 10v12l-6 12-7 6-12 5-49 15-49 16-43 15-43 16-27 11-30 12-30 13-37 17-35 17-19 10-26 14-26 15-24 15-27 18-28 19-17 11-21 13-23 13-20 11-23 11-21 10-38 16-35 13-41 14-37 11-36 10-83 21-54 14-36 12-16 8-9 6 1 6 6 7 14 9 19 8 20 6 31 6 28 3 13 1h51l35-3 33-5 28-6 25-7 27-9 21-9 25-12 27-16 22-12 27-13 37-15 42-15 44-14 53-15 50-13 62-15 64-14 78-16 97-18 87-15 43-8 33-6 8-1h17l12 3 12 6 12 9 14 12 7 7 8 7 11 10 11 9 14 12 26 20 18 13 17 12 14 9 19 12 23 13 17 9 27 12 25 9 23 6 16 3 27 2 22-2 19-5 16-7 15-9 11-10 6-5 11-14 9-15 7-16 5-17 2-16v-17l-2-19-5-22-9-25-10-22-10-18-12-19-12-17-13-17-9-11-12-15-4-8-1-10 2-9 6-9 8-6 8-3h10l9 3 10 9 9 10 11 14 10 13 13 18 11 17 9 15 13 24 11 25 10 30 6 27 2 18v31l-2 15-6 25-8 20-10 19-12 17-11 13-9 10-15 13-18 12-17 9-19 7-21 5-25 3h-20l-21-2-27-5-28-8-27-10-20-9-25-12-23-13-20-12-27-18-28-20-14-11-18-14-13-11-28-24-17-16-12-10h-11l-63 12-143 25-121 24-63 14-46 11-52 13-32 9-25 7-39 12-36 12-19 7-30 12-26 12-17 9-25 15-20 11-28 13-26 10-29 9-29 7-31 6-37 5-25 2-37 1-38-2-27-3-28-5-28-7-22-8-21-10-12-8-13-11-9-10-8-14-4-11-2-17 3-17 8-16 11-12 15-11 17-9 26-10 29-9 54-14 79-20 42-12 30-9 47-16 33-13 26-11 36-17 29-15 27-16 21-13 16-11 25-17 12-8 24-15 20-12 45-25 41-21 34-16 36-16 29-12 27-11 58-22 52-18 37-12 28-9 34-10z"/>
<path transform="translate(1397,8)" d="m0 0h12l9 3 10 9 4 9 1 5 2 101 10 617 6 359v17l-2 11-4 7-9 8-16 9-17 12-11 9-10 9-12 12-11 14-8 12-9 16-8 19-5 16-4 23v35l4 16 6 11 6 7 14 8 13 4 14 2h30l26-4 26-6h11l10 4 10 9 10 11 7 8 10 10 14 11 11 8 23 12 17 5 8 1h14l14-3 14-6 11-7 11-9 13-13 7-10 5-9 6-14 4-15 2-19v-13l-3-25-5-22-10-30-13-30-14-27-17-28-14-21-12-17-8-11-3-8-1-334-1-579v-170l2-9 6-10 8-6 6-2h14l8 3 9 8 4 8 1 3 1 84 1 600 1 388 3 6 14 19 11 17 12 20 13 23 11 22 11 25 9 25 7 25 5 24 2 15 1 13v20l-3 24-5 20-6 16-10 19-8 12-11 13-18 18-19 14-16 9-18 7-22 5-10 1h-18l-19-3-17-5-17-7-17-9-12-8-12-9-13-11-13-12-7-7-3-4h-8l-23 4-18 2h-34l-20-3-19-5-16-7-14-9-10-9-9-9-10-15-7-16-5-18-2-13-1-13 1-29 3-21 5-21 6-18 8-18 10-19 11-16 9-12 9-10 7-8 14-14 11-9 18-14 14-9v-49l-7-434-7-425-2-122v-51l4-10 6-7 8-5z"/>
<path transform="translate(1048,477)" d="m0 0 11 1 10 5 7 8 3 6 1 4v12l-5 10-4 5-10 6-36 17-24 13-15 9-19 12-17 12-19 14-22 18-11 10-8 7-5 4-24 24-7 8-9 10-9 11-11 13-12 16-12 17-13 20-12 20-12 22-8 16-10 21-12 30-9 25-12 42-8 36-4 24-4 34-2 40v27l2 41 5 41 5 27 7 31 10 34 12 35 1 4v9l-4 10-7 8-9 5-5 1h-10l-10-4-8-8-6-13-7-19-11-36-9-36-6-32-5-36-3-34-1-19v-46l2-32 4-35 6-37 9-40 11-37 11-32 12-29 11-24 12-24 13-23 11-18 20-30 8-11 12-16 9-11 14-17 5-6h2l2-4 9-9 7-8 19-19 8-7 14-13 14-11 13-11 19-14 20-14 22-14 24-14 22-12 23-11 16-7z"/>
<path transform="translate(847,857)" d="m0 0h10l28 8 28 9 30 9 31 10 55 17 13 5 8 7 5 9 1 4v11l-4 9-7 8-6 4-7 2h-10l-24-7-154-48-9-5-7-8-4-10v-9l4-11 7-8z"/>
<path transform="translate(1014,997)" d="m0 0h15l9 4 8 7 5 10 1 11-3 9-6 9-5 4-13 4-110 12-10 1h-19l-10-5-7-8-4-9v-12l4-10 5-6 10-6 18-3z"/>
<path transform="translate(972,758)" d="m0 0h13l10 4 12 11 17 17 8 7 30 30 8 7 24 24 5 8 2 9-1 10-6 11-7 6-8 3-4 1h-8l-10-4-9-7-40-40-2-1v-2l-4-2-33-33-8-7-8-10-3-8v-11l4-10 6-7z"/>
</svg>
