<?xml version="1.0" encoding="UTF-8"?>
<svg version="1.1" viewBox="0 0 2048 2048" width="512" height="512" xmlns="http://www.w3.org/2000/svg">
<path transform="translate(343)" d="m0 0h1362l11 8 6 8 3 8v971h218l21 3 15 5 16 8 11 8 10 9 8 8 10 15 8 17 4 12v5h2v588h-2l-6 18-7 14-9 13-11 12-14 11-19 10-16 5-16 3-58 1-7 2-68 40-9 6-12 21-42 72-11 19-13 22-15 25-6 11-10 17-12 20-6 11-10 14-9 6-4 2h-18l-9-6-8-9-7-17-17-49-17-48-15-43-17-48-15-43-8-23-1-2-1090-1-10-4-7-6-5-8-2-5v-14l4-10 5-6 7-5 5-2 8-1 1063-1-22-63-17-48-11-31-3-10-2-5v-3l-9 6-10 2-10-1-10-5-7-7-4-8-7-33-16-84-10-51-1-4-6 21-18 64-14 48-7 25-4 13-6 11-8 7-8 4-7 2h-12l-10-3-8-6-7-8-4-8-9-29-12-41-20-68-8-28-1-4-2 7-11 60-10 56-8 44-4 11-9 10-10 4-10 1-9-2-8-5-7-8-3-6-1-4v-12l15-84 9-49 11-62 10-54 5-26 5-10 7-8 8-5 13-3 15 2 8 4 8 7 6 10 8 26 12 41 18 61 16 54 1 10h2l3-11 7-25 17-60 26-91 7-14 7-7 9-5 13-2 12 2 10 5 8 8 5 10 5 22 24 126 6 31v6l11-1 15 4 45 16 16 6-1-3v-199l2-12 4-8 8-8 9-4 9-1 10 2 10 6 6 7 4 12v228l9 4 43 15 85 30 7 3v-246h-51l-11-4-7-6-6-10-2-11 3-12 6-8 6-5 8-4 7-1h152l11 1 10 5 5 5 4 5 3 7 1 9-2 10-6 9-7 6-7 3-6 1h-49l-1 256-4 9 12 5 29 10 49 17 102 36 8 3-1-505-4-14-7-11-7-7-13-7-15-3-314-1-9-2-6-4-5-5-4-5-3-8v-12l3-9 6-8 10-6 6-2h40v-935h-1280v260l-1 11-5 10-6 7-8 4-8 2h-7l-10-3-10-9-6-12-1-10v-290l2-11 6-9 8-7zm1154 1497 3 10 17 49 18 50 10 29 17 49 17 48 14 40 19 54 20 57 17 48 4 13h3l10-17 70-120 17-29 9-14 7-6 101-59 26-15 22-13 19-11 8-5-2-2-29-10-28-10-57-20-39-14-29-10-60-21-48-17-49-17-37-13-54-19-15-5z"/>
<path transform="translate(348,433)" d="m0 0h9l10 3 8 6 7 10 2 10v532l1107 1 9 2 10 6 6 8 3 7 1 10-2 8-4 8-7 7-9 4-8 1-1384 1-14 3-12 7-8 8-7 12-3 12-1 15v531l2 17 4 10 8 11 11 8 9 4 10 2 198 1 9 2 9 6 7 9 3 9v9l-4 11-9 10-9 4-4 1h-205l-17-3-15-5-16-8-12-9-11-10-11-14-8-14-6-15-4-14v-581l9-26 9-16 10-13h2l2-4 14-12 16-9 11-5 15-4 16-2h218v-527l1-12 6-12 8-7z"/>
<path transform="translate(500,153)" d="m0 0h399l10 3 7 5 6 9 3 8v566l-2 9-6 9-7 6-10 3-87 1-313-1-10-4-5-5-5-6-3-7-1-5v-565l4-11 9-10 8-4zm37 61v497h327v-497z"/>
<path transform="translate(1034,153)" d="m0 0h511l10 3 8 6 6 8 2 6 1 7v134l-1 11-6 12-8 7-7 3-5 1h-511l-10-4-8-7-6-12-1-7v-139l2-9 6-10 7-6zm37 61v76h440l-1-76z"/>
<path transform="translate(828,1207)" d="m0 0h86l19 2 16 5 17 9 11 9 9 9 7 10 8 15 5 16 2 14v11l-2 14-5 16-10 20 10 9 8 8 7 10 8 14 6 18 2 11 1 15-1 15-4 17-8 18-7 11-8 10-7 7-12 9-12 7-19 7-15 3-13 1h-100l-11-4-8-7-6-12-1-5v-284l3-10 4-6 9-8 6-3zm35 61-1 2v60l1 6h39l18-1 10-4 8-6 6-9 2-6v-16l-4-10-8-9-10-5-10-2zm0 129v89h65l12-2 14-7 5-5 6-7 4-8 2-7v-18l-5-13-6-8-9-8-8-4-9-2z"/>
<path transform="translate(793,856)" d="m0 0h752l8 2 9 6 6 7 3 7 1 5v7l-3 10-7 9-7 5-6 2-9 1h-745l-9-2-9-6-6-7-3-7-1-11 2-9 5-8 8-7 6-3z"/>
<path transform="translate(509,1207)" d="m0 0 13 2 9 6 6 7 4 10 1 202 2 11 7 14 9 9 10 7 14 7 15 3h16l16-4 16-8 11-8 8-9 5-11 2-10 1-203 4-10 8-9 10-5 8-1 11 2 8 4 8 9 4 11v204l-2 15-5 18-8 16-10 14-16 16-15 10-19 10-14 5-21 5-8 1h-24l-17-3-16-5-19-9-17-12-13-12-10-11-10-16-6-15-4-17-1-11v-203l4-11 8-9 7-4z"/>
<path transform="translate(296,1207)" d="m0 0h14l18 2 19 5 16 6 20 10 15 10 9 9 4 8 1 3v13l-6 12-5 5-8 5-9 2h-8l-10-4-17-11-15-7-14-4-13-2h-10l-16 3-9 4-8 6-5 8-2 7v8l4 10 8 6 36 15 21 8 27 11 19 10 14 10 7 6v2l3 1 11 14 8 15 4 12 2 10v22l-3 15-7 17-7 11-7 9-11 11-18 12-18 8-19 5-12 2h-25l-20-3-19-5-16-6-21-11-16-12-12-11-7-9-3-6-1-5v-7l3-10 6-9 9-6 5-2h15l12 6 11 11 10 7 15 8 15 5 9 2 10 1h14l11-2 13-5 10-7 8-9 4-11v-9l-3-9-9-10-10-7-20-9-36-14-36-15-12-6-9-7-11-11-9-14-5-11-4-17v-21l4-18 6-14 9-13 9-10 8-7 14-9 14-6 19-5z"/>
<path transform="translate(1047,710)" d="m0 0h480l21 1 10 4 9 9 4 9 1 5v7l-4 11-6 8-8 5-7 2-35 1h-461l-18-1-9-4-8-7-5-9-2-8 1-9 4-10 4-5 9-6 5-2z"/>
<path transform="translate(1034,565)" d="m0 0h512l11 4 8 7 5 8 2 8v7l-3 10-7 9-9 6-9 2h-508l-10-3-9-7-6-10-2-8 1-10 6-12 8-7z"/>
<path transform="translate(1513,435)" d="m0 0 34 1 10 4 9 8 5 10 1 11-4 13-7 8-9 5-4 1-16 1h-489l-11-1-10-5-7-7-5-10-1-10 3-11 6-8 8-6 8-3z"/>
<path transform="translate(502,856)" d="m0 0h154l10 3 8 6 6 8 3 9v8l-3 10-6 8-6 5-8 3-8 1h-149l-10-3-8-6-6-8-3-9v-9l4-11 4-6 9-6z"/>
<path transform="translate(2047,1080)" d="m0 0"/>
<path transform="translate(1634,2047)" d="m0 0 2 1z"/>
<path transform="translate(1706)" d="m0 0 2 1z"/>
</svg>
