
<svg version="1.0" xmlns="http://www.w3.org/2000/svg"
 width="203.000000pt" height="189.000000pt" viewBox="0 0 203.000000 189.000000"
 preserveAspectRatio="xMidYMid meet">

<g transform="translate(0.000000,189.000000) scale(0.100000,-0.100000)">
<path d="M935 1406 c-57 -26 -97 -68 -116 -121 l-13 -35 -72 0 c-49 0 -77 -5
-87 -14 -10 -11 -17 -79 -27 -278 -7 -144 -13 -271 -14 -280 0 -10 -5 -18 -11
-18 -57 -1 -368 -30 -373 -34 -3 -4 -1 -11 5 -17 9 -9 261 2 346 16 l27 5 0
-74 c0 -58 3 -75 16 -80 9 -3 204 -6 434 -6 481 0 446 -8 434 96 l-7 57 99 -7
c54 -3 138 -9 187 -13 77 -5 87 -4 87 11 0 9 -6 16 -12 17 -77 3 -349 27 -352
30 -3 3 -10 124 -16 269 -7 146 -16 277 -22 293 -10 26 -13 27 -87 27 l-77 0
-13 36 c-18 49 -68 104 -116 125 -59 27 -157 25 -220 -5z m201 -37 c28 -13 54
-37 74 -67 l31 -47 -192 -3 c-106 -1 -194 0 -197 2 -11 12 38 74 82 104 40 27
58 32 104 32 36 0 71 -7 98 -21z m-336 -209 c0 -43 3 -50 20 -50 17 0 20 7 20
50 l0 50 205 0 205 0 0 -50 c0 -43 3 -50 20 -50 17 0 20 7 20 50 l0 50 65 0
65 0 0 -32 c0 -18 7 -159 15 -313 8 -154 15 -299 15 -322 l0 -43 -404 0 c-223
0 -407 3 -409 7 -2 5 4 154 14 333 10 179 18 335 18 348 1 20 5 22 66 22 l65
0 0 -50z"/>
<path d="M877 827 c-8 -21 8 -39 29 -35 27 5 25 42 -2 46 -12 2 -24 -3 -27
-11z"/>
<path d="M1163 824 c-3 -8 -1 -20 5 -26 16 -16 42 -2 42 22 0 24 -38 28 -47 4z"/>
<path d="M1016 713 c-14 -14 -24 -28 -22 -31 6 -5 146 19 146 26 0 13 -38 31
-66 32 -21 0 -40 -9 -58 -27z"/>
</g>
</svg>
